M48
; DRILL file {KiCad 7.0.10} date Sunday, February 18, 2024 at 07:42:41 PM
; FORMAT={-:-/ absolute / metric / decimal}
; #@! TF.CreationDate,2024-02-18T19:42:41-05:00
; #@! TF.GenerationSoftware,Kicad,Pcbnew,7.0.10
; #@! TF.FileFunction,Plated,1,2,PTH
FMAT,2
METRIC
; #@! TA.AperFunction,Plated,PTH,ViaDrill
T1C0.400
; #@! TA.AperFunction,Plated,PTH,ComponentDrill
T2C0.700
; #@! TA.AperFunction,Plated,PTH,ComponentDrill
T3C0.800
; #@! TA.AperFunction,Plated,PTH,ComponentDrill
T4C0.900
; #@! TA.AperFunction,Plated,PTH,ComponentDrill
T5C1.000
; #@! TA.AperFunction,Plated,PTH,ComponentDrill
T6C1.100
; #@! TA.AperFunction,Plated,PTH,ComponentDrill
T7C1.200
; #@! TA.AperFunction,Plated,PTH,ComponentDrill
T8C1.270
; #@! TA.AperFunction,Plated,PTH,ComponentDrill
T9C1.295
; #@! TA.AperFunction,Plated,PTH,ComponentDrill
T10C1.524
; #@! TA.AperFunction,Plated,PTH,ComponentDrill
T11C2.400
; #@! TA.AperFunction,Plated,PTH,ComponentDrill
T12C2.540
; #@! TA.AperFunction,Plated,PTH,ComponentDrill
T13C4.064
%
G90
G05
T1
X232.41Y-123.825
X246.38Y-112.395
T2
X128.27Y-114.935
X135.89Y-114.935
X167.005Y-113.665
X167.005Y-121.285
X170.18Y-113.665
X170.18Y-121.285
X176.53Y-92.71
X182.88Y-113.665
X182.88Y-121.285
X184.15Y-92.71
X186.055Y-113.665
X186.055Y-121.285
X193.294Y-108.204
X193.294Y-110.744
X193.294Y-113.284
X193.294Y-115.824
X198.755Y-89.535
X200.914Y-108.204
X200.914Y-110.744
X200.914Y-113.284
X200.914Y-115.824
X206.248Y-108.204
X206.248Y-110.744
X206.248Y-113.284
X206.248Y-115.824
X206.375Y-89.535
X213.868Y-108.204
X213.868Y-110.744
X213.868Y-113.284
X213.868Y-115.824
X233.68Y-128.27
X233.68Y-135.89
X236.855Y-128.27
X236.855Y-135.89
X240.03Y-97.79
X240.03Y-106.045
X240.03Y-114.3
X240.03Y-122.555
X240.03Y-128.27
X240.03Y-135.89
X243.205Y-128.27
X243.205Y-135.89
X247.65Y-97.79
X247.65Y-106.045
X247.65Y-114.3
X247.65Y-122.555
T3
X138.47Y-116.84
X140.97Y-116.84
X148.59Y-97.175
X148.59Y-99.675
X151.658Y-103.632
X151.765Y-92.837
X151.765Y-100.457
X151.79Y-89.662
X154.158Y-103.632
X154.29Y-89.662
X154.305Y-92.837
X154.305Y-100.457
X156.845Y-92.837
X156.845Y-100.457
X158.115Y-103.505
X158.115Y-111.125
X159.385Y-92.837
X159.385Y-100.457
X161.925Y-92.837
X161.925Y-100.457
X161.925Y-103.505
X161.925Y-111.125
X164.465Y-92.837
X164.465Y-100.457
X164.485Y-89.535
X165.735Y-103.505
X165.735Y-111.125
X166.985Y-89.535
X167.005Y-92.837
X167.005Y-100.457
X169.545Y-103.505
X169.545Y-111.125
X170.18Y-97.79
X170.18Y-100.29
X173.355Y-100.33
X173.355Y-102.83
X176.525Y-97.507
X176.525Y-105.127
X179.065Y-97.507
X179.065Y-105.127
X181.605Y-97.507
X181.605Y-105.127
X184.145Y-97.507
X184.145Y-105.127
X186.685Y-97.507
X186.685Y-105.127
X189.225Y-97.507
X189.225Y-105.127
X189.23Y-90.825
X189.23Y-93.325
X191.765Y-97.507
X191.765Y-105.127
X192.405Y-93.705
X194.945Y-93.705
X197.485Y-93.705
X199.385Y-97.536
X199.385Y-105.156
X200.68Y-93.98
X201.925Y-97.536
X201.925Y-105.156
X203.18Y-93.98
X204.465Y-97.536
X204.465Y-105.156
X206.375Y-93.98
X207.005Y-97.536
X207.005Y-105.156
X209.545Y-97.536
X209.545Y-105.156
X212.085Y-97.536
X212.085Y-105.156
X213.36Y-138.43
X214.625Y-97.536
X214.625Y-105.156
X215.86Y-138.43
X216.535Y-93.98
X225.429Y-94.488
X225.429Y-97.028
X225.429Y-99.568
X225.429Y-102.108
X225.429Y-104.648
X225.429Y-107.188
X225.429Y-109.728
X225.429Y-112.268
X225.429Y-114.808
X225.429Y-117.348
X225.429Y-119.888
X225.429Y-122.428
X225.429Y-124.968
X225.429Y-127.508
X225.429Y-130.048
X225.429Y-132.588
X225.429Y-135.128
X225.429Y-137.668
X225.429Y-140.208
X229.215Y-106.68
X229.255Y-100.33
X229.255Y-109.855
X229.275Y-103.505
X229.275Y-113.03
X231.715Y-106.68
X231.755Y-100.33
X231.755Y-109.855
X231.775Y-103.505
X231.775Y-113.03
X236.58Y-95.25
X236.58Y-97.79
X236.58Y-100.33
X236.58Y-103.505
X236.58Y-106.045
X236.58Y-108.585
X236.58Y-111.76
X236.58Y-114.3
X236.58Y-116.84
X236.58Y-120.015
X236.58Y-122.555
X236.58Y-125.095
X250.825Y-137.665
X250.825Y-140.205
X250.829Y-94.488
X250.829Y-97.028
X250.829Y-99.568
X250.829Y-102.108
X250.829Y-104.648
X250.829Y-107.188
X250.829Y-109.728
X250.829Y-112.268
X250.829Y-114.808
X250.829Y-117.348
X250.829Y-119.888
X250.829Y-122.428
X250.829Y-124.968
X250.829Y-127.508
X250.829Y-130.048
X250.829Y-132.588
X250.829Y-135.128
T4
X142.875Y-103.505
X145.415Y-103.505
T5
X220.345Y-94.488
X220.345Y-97.028
X220.345Y-99.568
X220.345Y-102.108
X220.345Y-104.648
X220.345Y-107.188
X220.345Y-109.728
X220.345Y-112.268
X220.345Y-114.808
X220.345Y-117.348
X220.345Y-119.888
X220.345Y-122.428
X220.345Y-124.968
X220.345Y-127.508
X220.345Y-130.048
X220.345Y-132.588
X220.345Y-135.128
X220.345Y-137.668
X220.345Y-140.208
X255.905Y-94.488
X255.905Y-97.028
X255.905Y-99.568
X255.905Y-102.108
X255.905Y-104.648
X255.905Y-107.188
X255.905Y-109.728
X255.905Y-112.268
X255.905Y-114.808
X255.905Y-117.348
X255.905Y-119.888
X255.905Y-122.428
X255.905Y-124.968
X255.905Y-127.508
X255.905Y-130.048
X255.905Y-132.588
X255.905Y-135.128
X255.905Y-137.668
X255.905Y-140.208
X261.62Y-99.695
X261.62Y-102.235
X261.62Y-104.775
X261.62Y-107.315
X261.62Y-109.855
X261.62Y-112.395
X261.62Y-114.935
X261.62Y-117.475
X261.62Y-123.825
X261.62Y-126.365
X261.62Y-128.905
X261.62Y-131.445
T6
X138.43Y-120.65
X140.97Y-120.65
X143.51Y-120.65
X152.4Y-139.7
X154.94Y-139.7
X157.48Y-139.7
X168.275Y-139.7
X170.815Y-139.7
X173.355Y-139.7
X184.15Y-139.7
X186.69Y-139.7
X189.23Y-139.7
X200.025Y-139.7
X202.565Y-139.7
X205.105Y-139.7
T7
X143.51Y-97.155
X147.4Y-112.395
X152.4Y-112.395
X158.64Y-120.015
X163.72Y-120.015
X174.515Y-120.015
X175.26Y-89.535
X179.595Y-120.015
X179.705Y-89.535
X184.15Y-89.535
X190.39Y-120.015
X195.47Y-120.015
X206.265Y-120.015
X211.345Y-120.015
X216.408Y-90.424
T8
X139.065Y-137.795
X142.519Y-130.175
T9
X130.81Y-119.587
X130.81Y-124.587
X130.81Y-129.587
X130.81Y-134.587
X130.81Y-139.587
T10
X139.7Y-93.091
X139.7Y-98.171
X139.7Y-103.251
X139.7Y-108.331
T11
X154.94Y-132.842
X170.815Y-132.842
X186.69Y-132.842
X202.565Y-132.842
T12
X137.16Y-90.551
X137.16Y-110.871
T13
X129.54Y-95.631
X129.54Y-105.791
M30
