%TF.GenerationSoftware,KiCad,Pcbnew,7.0.10*%
%TF.CreationDate,2024-02-18T19:42:57-05:00*%
%TF.ProjectId,linearlight,6c696e65-6172-46c6-9967-68742e6b6963,rev?*%
%TF.SameCoordinates,Original*%
%TF.FileFunction,Drillmap*%
%TF.FilePolarity,Positive*%
%FSLAX45Y45*%
G04 Gerber Fmt 4.5, Leading zero omitted, Abs format (unit mm)*
G04 Created by KiCad (PCBNEW 7.0.10) date 2024-02-18 19:42:57*
%MOMM*%
%LPD*%
G01*
G04 APERTURE LIST*
%ADD10C,0.100000*%
%ADD11C,0.200000*%
%ADD12C,0.320000*%
%ADD13C,0.378460*%
G04 APERTURE END LIST*
D10*
X26670000Y-8763000D02*
X26670000Y-14224000D01*
X26416000Y-14478000D01*
X12827000Y-14478000D01*
X12573000Y-14224000D01*
X12573000Y-8763000D01*
X12827000Y-8509000D01*
X26416000Y-8509000D01*
X26670000Y-8763000D01*
D11*
D12*
X14445000Y-8996700D02*
X14765000Y-9316700D01*
X14765000Y-8996700D02*
X14445000Y-9316700D01*
X26065500Y-8984000D02*
X26385500Y-9304000D01*
X26385500Y-8984000D02*
X26065500Y-9304000D01*
X26065500Y-13683000D02*
X26385500Y-14003000D01*
X26385500Y-13683000D02*
X26065500Y-14003000D01*
D13*
X14268450Y-13398500D02*
G75*
G03*
X13889990Y-13398500I-189230J0D01*
G01*
X13889990Y-13398500D02*
G75*
G03*
X14268450Y-13398500I189230J0D01*
G01*
D11*
X12828777Y-14794484D02*
X12828777Y-14594484D01*
X12828777Y-14594484D02*
X12876396Y-14594484D01*
X12876396Y-14594484D02*
X12904967Y-14604008D01*
X12904967Y-14604008D02*
X12924015Y-14623055D01*
X12924015Y-14623055D02*
X12933539Y-14642103D01*
X12933539Y-14642103D02*
X12943062Y-14680198D01*
X12943062Y-14680198D02*
X12943062Y-14708769D01*
X12943062Y-14708769D02*
X12933539Y-14746865D01*
X12933539Y-14746865D02*
X12924015Y-14765912D01*
X12924015Y-14765912D02*
X12904967Y-14784960D01*
X12904967Y-14784960D02*
X12876396Y-14794484D01*
X12876396Y-14794484D02*
X12828777Y-14794484D01*
X13028777Y-14794484D02*
X13028777Y-14661150D01*
X13028777Y-14699246D02*
X13038301Y-14680198D01*
X13038301Y-14680198D02*
X13047824Y-14670674D01*
X13047824Y-14670674D02*
X13066872Y-14661150D01*
X13066872Y-14661150D02*
X13085920Y-14661150D01*
X13152586Y-14794484D02*
X13152586Y-14661150D01*
X13152586Y-14594484D02*
X13143062Y-14604008D01*
X13143062Y-14604008D02*
X13152586Y-14613531D01*
X13152586Y-14613531D02*
X13162110Y-14604008D01*
X13162110Y-14604008D02*
X13152586Y-14594484D01*
X13152586Y-14594484D02*
X13152586Y-14613531D01*
X13276396Y-14794484D02*
X13257348Y-14784960D01*
X13257348Y-14784960D02*
X13247824Y-14765912D01*
X13247824Y-14765912D02*
X13247824Y-14594484D01*
X13381158Y-14794484D02*
X13362110Y-14784960D01*
X13362110Y-14784960D02*
X13352586Y-14765912D01*
X13352586Y-14765912D02*
X13352586Y-14594484D01*
X13609729Y-14794484D02*
X13609729Y-14594484D01*
X13609729Y-14594484D02*
X13676396Y-14737341D01*
X13676396Y-14737341D02*
X13743062Y-14594484D01*
X13743062Y-14594484D02*
X13743062Y-14794484D01*
X13924015Y-14794484D02*
X13924015Y-14689722D01*
X13924015Y-14689722D02*
X13914491Y-14670674D01*
X13914491Y-14670674D02*
X13895443Y-14661150D01*
X13895443Y-14661150D02*
X13857348Y-14661150D01*
X13857348Y-14661150D02*
X13838301Y-14670674D01*
X13924015Y-14784960D02*
X13904967Y-14794484D01*
X13904967Y-14794484D02*
X13857348Y-14794484D01*
X13857348Y-14794484D02*
X13838301Y-14784960D01*
X13838301Y-14784960D02*
X13828777Y-14765912D01*
X13828777Y-14765912D02*
X13828777Y-14746865D01*
X13828777Y-14746865D02*
X13838301Y-14727817D01*
X13838301Y-14727817D02*
X13857348Y-14718293D01*
X13857348Y-14718293D02*
X13904967Y-14718293D01*
X13904967Y-14718293D02*
X13924015Y-14708769D01*
X14019253Y-14661150D02*
X14019253Y-14861150D01*
X14019253Y-14670674D02*
X14038301Y-14661150D01*
X14038301Y-14661150D02*
X14076396Y-14661150D01*
X14076396Y-14661150D02*
X14095443Y-14670674D01*
X14095443Y-14670674D02*
X14104967Y-14680198D01*
X14104967Y-14680198D02*
X14114491Y-14699246D01*
X14114491Y-14699246D02*
X14114491Y-14756388D01*
X14114491Y-14756388D02*
X14104967Y-14775436D01*
X14104967Y-14775436D02*
X14095443Y-14784960D01*
X14095443Y-14784960D02*
X14076396Y-14794484D01*
X14076396Y-14794484D02*
X14038301Y-14794484D01*
X14038301Y-14794484D02*
X14019253Y-14784960D01*
X14200205Y-14775436D02*
X14209729Y-14784960D01*
X14209729Y-14784960D02*
X14200205Y-14794484D01*
X14200205Y-14794484D02*
X14190682Y-14784960D01*
X14190682Y-14784960D02*
X14200205Y-14775436D01*
X14200205Y-14775436D02*
X14200205Y-14794484D01*
X14200205Y-14670674D02*
X14209729Y-14680198D01*
X14209729Y-14680198D02*
X14200205Y-14689722D01*
X14200205Y-14689722D02*
X14190682Y-14680198D01*
X14190682Y-14680198D02*
X14200205Y-14670674D01*
X14200205Y-14670674D02*
X14200205Y-14689722D01*
X12368000Y-15023000D02*
X12568000Y-15223000D01*
X12568000Y-15023000D02*
X12368000Y-15223000D01*
X12809729Y-15014484D02*
X12933539Y-15014484D01*
X12933539Y-15014484D02*
X12866872Y-15090674D01*
X12866872Y-15090674D02*
X12895443Y-15090674D01*
X12895443Y-15090674D02*
X12914491Y-15100198D01*
X12914491Y-15100198D02*
X12924015Y-15109722D01*
X12924015Y-15109722D02*
X12933539Y-15128769D01*
X12933539Y-15128769D02*
X12933539Y-15176388D01*
X12933539Y-15176388D02*
X12924015Y-15195436D01*
X12924015Y-15195436D02*
X12914491Y-15204960D01*
X12914491Y-15204960D02*
X12895443Y-15214484D01*
X12895443Y-15214484D02*
X12838301Y-15214484D01*
X12838301Y-15214484D02*
X12819253Y-15204960D01*
X12819253Y-15204960D02*
X12809729Y-15195436D01*
X13019253Y-15195436D02*
X13028777Y-15204960D01*
X13028777Y-15204960D02*
X13019253Y-15214484D01*
X13019253Y-15214484D02*
X13009729Y-15204960D01*
X13009729Y-15204960D02*
X13019253Y-15195436D01*
X13019253Y-15195436D02*
X13019253Y-15214484D01*
X13104967Y-15033531D02*
X13114491Y-15024008D01*
X13114491Y-15024008D02*
X13133539Y-15014484D01*
X13133539Y-15014484D02*
X13181158Y-15014484D01*
X13181158Y-15014484D02*
X13200205Y-15024008D01*
X13200205Y-15024008D02*
X13209729Y-15033531D01*
X13209729Y-15033531D02*
X13219253Y-15052579D01*
X13219253Y-15052579D02*
X13219253Y-15071627D01*
X13219253Y-15071627D02*
X13209729Y-15100198D01*
X13209729Y-15100198D02*
X13095443Y-15214484D01*
X13095443Y-15214484D02*
X13219253Y-15214484D01*
X13343062Y-15014484D02*
X13362110Y-15014484D01*
X13362110Y-15014484D02*
X13381158Y-15024008D01*
X13381158Y-15024008D02*
X13390682Y-15033531D01*
X13390682Y-15033531D02*
X13400205Y-15052579D01*
X13400205Y-15052579D02*
X13409729Y-15090674D01*
X13409729Y-15090674D02*
X13409729Y-15138293D01*
X13409729Y-15138293D02*
X13400205Y-15176388D01*
X13400205Y-15176388D02*
X13390682Y-15195436D01*
X13390682Y-15195436D02*
X13381158Y-15204960D01*
X13381158Y-15204960D02*
X13362110Y-15214484D01*
X13362110Y-15214484D02*
X13343062Y-15214484D01*
X13343062Y-15214484D02*
X13324015Y-15204960D01*
X13324015Y-15204960D02*
X13314491Y-15195436D01*
X13314491Y-15195436D02*
X13304967Y-15176388D01*
X13304967Y-15176388D02*
X13295443Y-15138293D01*
X13295443Y-15138293D02*
X13295443Y-15090674D01*
X13295443Y-15090674D02*
X13304967Y-15052579D01*
X13304967Y-15052579D02*
X13314491Y-15033531D01*
X13314491Y-15033531D02*
X13324015Y-15024008D01*
X13324015Y-15024008D02*
X13343062Y-15014484D01*
X13533539Y-15014484D02*
X13552586Y-15014484D01*
X13552586Y-15014484D02*
X13571634Y-15024008D01*
X13571634Y-15024008D02*
X13581158Y-15033531D01*
X13581158Y-15033531D02*
X13590682Y-15052579D01*
X13590682Y-15052579D02*
X13600205Y-15090674D01*
X13600205Y-15090674D02*
X13600205Y-15138293D01*
X13600205Y-15138293D02*
X13590682Y-15176388D01*
X13590682Y-15176388D02*
X13581158Y-15195436D01*
X13581158Y-15195436D02*
X13571634Y-15204960D01*
X13571634Y-15204960D02*
X13552586Y-15214484D01*
X13552586Y-15214484D02*
X13533539Y-15214484D01*
X13533539Y-15214484D02*
X13514491Y-15204960D01*
X13514491Y-15204960D02*
X13504967Y-15195436D01*
X13504967Y-15195436D02*
X13495443Y-15176388D01*
X13495443Y-15176388D02*
X13485920Y-15138293D01*
X13485920Y-15138293D02*
X13485920Y-15090674D01*
X13485920Y-15090674D02*
X13495443Y-15052579D01*
X13495443Y-15052579D02*
X13504967Y-15033531D01*
X13504967Y-15033531D02*
X13514491Y-15024008D01*
X13514491Y-15024008D02*
X13533539Y-15014484D01*
X13685920Y-15214484D02*
X13685920Y-15081150D01*
X13685920Y-15100198D02*
X13695443Y-15090674D01*
X13695443Y-15090674D02*
X13714491Y-15081150D01*
X13714491Y-15081150D02*
X13743063Y-15081150D01*
X13743063Y-15081150D02*
X13762110Y-15090674D01*
X13762110Y-15090674D02*
X13771634Y-15109722D01*
X13771634Y-15109722D02*
X13771634Y-15214484D01*
X13771634Y-15109722D02*
X13781158Y-15090674D01*
X13781158Y-15090674D02*
X13800205Y-15081150D01*
X13800205Y-15081150D02*
X13828777Y-15081150D01*
X13828777Y-15081150D02*
X13847824Y-15090674D01*
X13847824Y-15090674D02*
X13857348Y-15109722D01*
X13857348Y-15109722D02*
X13857348Y-15214484D01*
X13952586Y-15214484D02*
X13952586Y-15081150D01*
X13952586Y-15100198D02*
X13962110Y-15090674D01*
X13962110Y-15090674D02*
X13981158Y-15081150D01*
X13981158Y-15081150D02*
X14009729Y-15081150D01*
X14009729Y-15081150D02*
X14028777Y-15090674D01*
X14028777Y-15090674D02*
X14038301Y-15109722D01*
X14038301Y-15109722D02*
X14038301Y-15214484D01*
X14038301Y-15109722D02*
X14047824Y-15090674D01*
X14047824Y-15090674D02*
X14066872Y-15081150D01*
X14066872Y-15081150D02*
X14095443Y-15081150D01*
X14095443Y-15081150D02*
X14114491Y-15090674D01*
X14114491Y-15090674D02*
X14124015Y-15109722D01*
X14124015Y-15109722D02*
X14124015Y-15214484D01*
X14514491Y-15004960D02*
X14343063Y-15262103D01*
X14771634Y-15014484D02*
X14790682Y-15014484D01*
X14790682Y-15014484D02*
X14809729Y-15024008D01*
X14809729Y-15024008D02*
X14819253Y-15033531D01*
X14819253Y-15033531D02*
X14828777Y-15052579D01*
X14828777Y-15052579D02*
X14838301Y-15090674D01*
X14838301Y-15090674D02*
X14838301Y-15138293D01*
X14838301Y-15138293D02*
X14828777Y-15176388D01*
X14828777Y-15176388D02*
X14819253Y-15195436D01*
X14819253Y-15195436D02*
X14809729Y-15204960D01*
X14809729Y-15204960D02*
X14790682Y-15214484D01*
X14790682Y-15214484D02*
X14771634Y-15214484D01*
X14771634Y-15214484D02*
X14752586Y-15204960D01*
X14752586Y-15204960D02*
X14743063Y-15195436D01*
X14743063Y-15195436D02*
X14733539Y-15176388D01*
X14733539Y-15176388D02*
X14724015Y-15138293D01*
X14724015Y-15138293D02*
X14724015Y-15090674D01*
X14724015Y-15090674D02*
X14733539Y-15052579D01*
X14733539Y-15052579D02*
X14743063Y-15033531D01*
X14743063Y-15033531D02*
X14752586Y-15024008D01*
X14752586Y-15024008D02*
X14771634Y-15014484D01*
X14924015Y-15195436D02*
X14933539Y-15204960D01*
X14933539Y-15204960D02*
X14924015Y-15214484D01*
X14924015Y-15214484D02*
X14914491Y-15204960D01*
X14914491Y-15204960D02*
X14924015Y-15195436D01*
X14924015Y-15195436D02*
X14924015Y-15214484D01*
X15124015Y-15214484D02*
X15009729Y-15214484D01*
X15066872Y-15214484D02*
X15066872Y-15014484D01*
X15066872Y-15014484D02*
X15047825Y-15043055D01*
X15047825Y-15043055D02*
X15028777Y-15062103D01*
X15028777Y-15062103D02*
X15009729Y-15071627D01*
X15200206Y-15033531D02*
X15209729Y-15024008D01*
X15209729Y-15024008D02*
X15228777Y-15014484D01*
X15228777Y-15014484D02*
X15276396Y-15014484D01*
X15276396Y-15014484D02*
X15295444Y-15024008D01*
X15295444Y-15024008D02*
X15304967Y-15033531D01*
X15304967Y-15033531D02*
X15314491Y-15052579D01*
X15314491Y-15052579D02*
X15314491Y-15071627D01*
X15314491Y-15071627D02*
X15304967Y-15100198D01*
X15304967Y-15100198D02*
X15190682Y-15214484D01*
X15190682Y-15214484D02*
X15314491Y-15214484D01*
X15485920Y-15014484D02*
X15447825Y-15014484D01*
X15447825Y-15014484D02*
X15428777Y-15024008D01*
X15428777Y-15024008D02*
X15419253Y-15033531D01*
X15419253Y-15033531D02*
X15400206Y-15062103D01*
X15400206Y-15062103D02*
X15390682Y-15100198D01*
X15390682Y-15100198D02*
X15390682Y-15176388D01*
X15390682Y-15176388D02*
X15400206Y-15195436D01*
X15400206Y-15195436D02*
X15409729Y-15204960D01*
X15409729Y-15204960D02*
X15428777Y-15214484D01*
X15428777Y-15214484D02*
X15466872Y-15214484D01*
X15466872Y-15214484D02*
X15485920Y-15204960D01*
X15485920Y-15204960D02*
X15495444Y-15195436D01*
X15495444Y-15195436D02*
X15504967Y-15176388D01*
X15504967Y-15176388D02*
X15504967Y-15128769D01*
X15504967Y-15128769D02*
X15495444Y-15109722D01*
X15495444Y-15109722D02*
X15485920Y-15100198D01*
X15485920Y-15100198D02*
X15466872Y-15090674D01*
X15466872Y-15090674D02*
X15428777Y-15090674D01*
X15428777Y-15090674D02*
X15409729Y-15100198D01*
X15409729Y-15100198D02*
X15400206Y-15109722D01*
X15400206Y-15109722D02*
X15390682Y-15128769D01*
X15628777Y-15014484D02*
X15647825Y-15014484D01*
X15647825Y-15014484D02*
X15666872Y-15024008D01*
X15666872Y-15024008D02*
X15676396Y-15033531D01*
X15676396Y-15033531D02*
X15685920Y-15052579D01*
X15685920Y-15052579D02*
X15695444Y-15090674D01*
X15695444Y-15090674D02*
X15695444Y-15138293D01*
X15695444Y-15138293D02*
X15685920Y-15176388D01*
X15685920Y-15176388D02*
X15676396Y-15195436D01*
X15676396Y-15195436D02*
X15666872Y-15204960D01*
X15666872Y-15204960D02*
X15647825Y-15214484D01*
X15647825Y-15214484D02*
X15628777Y-15214484D01*
X15628777Y-15214484D02*
X15609729Y-15204960D01*
X15609729Y-15204960D02*
X15600206Y-15195436D01*
X15600206Y-15195436D02*
X15590682Y-15176388D01*
X15590682Y-15176388D02*
X15581158Y-15138293D01*
X15581158Y-15138293D02*
X15581158Y-15090674D01*
X15581158Y-15090674D02*
X15590682Y-15052579D01*
X15590682Y-15052579D02*
X15600206Y-15033531D01*
X15600206Y-15033531D02*
X15609729Y-15024008D01*
X15609729Y-15024008D02*
X15628777Y-15014484D01*
X15771634Y-15014484D02*
X15771634Y-15052579D01*
X15847825Y-15014484D02*
X15847825Y-15052579D01*
X16143063Y-15290674D02*
X16133539Y-15281150D01*
X16133539Y-15281150D02*
X16114491Y-15252579D01*
X16114491Y-15252579D02*
X16104968Y-15233531D01*
X16104968Y-15233531D02*
X16095444Y-15204960D01*
X16095444Y-15204960D02*
X16085920Y-15157341D01*
X16085920Y-15157341D02*
X16085920Y-15119246D01*
X16085920Y-15119246D02*
X16095444Y-15071627D01*
X16095444Y-15071627D02*
X16104968Y-15043055D01*
X16104968Y-15043055D02*
X16114491Y-15024008D01*
X16114491Y-15024008D02*
X16133539Y-14995436D01*
X16133539Y-14995436D02*
X16143063Y-14985912D01*
X16200206Y-15014484D02*
X16324015Y-15014484D01*
X16324015Y-15014484D02*
X16257348Y-15090674D01*
X16257348Y-15090674D02*
X16285920Y-15090674D01*
X16285920Y-15090674D02*
X16304968Y-15100198D01*
X16304968Y-15100198D02*
X16314491Y-15109722D01*
X16314491Y-15109722D02*
X16324015Y-15128769D01*
X16324015Y-15128769D02*
X16324015Y-15176388D01*
X16324015Y-15176388D02*
X16314491Y-15195436D01*
X16314491Y-15195436D02*
X16304968Y-15204960D01*
X16304968Y-15204960D02*
X16285920Y-15214484D01*
X16285920Y-15214484D02*
X16228777Y-15214484D01*
X16228777Y-15214484D02*
X16209729Y-15204960D01*
X16209729Y-15204960D02*
X16200206Y-15195436D01*
X16562110Y-15214484D02*
X16562110Y-15014484D01*
X16647825Y-15214484D02*
X16647825Y-15109722D01*
X16647825Y-15109722D02*
X16638301Y-15090674D01*
X16638301Y-15090674D02*
X16619253Y-15081150D01*
X16619253Y-15081150D02*
X16590682Y-15081150D01*
X16590682Y-15081150D02*
X16571634Y-15090674D01*
X16571634Y-15090674D02*
X16562110Y-15100198D01*
X16771634Y-15214484D02*
X16752587Y-15204960D01*
X16752587Y-15204960D02*
X16743063Y-15195436D01*
X16743063Y-15195436D02*
X16733539Y-15176388D01*
X16733539Y-15176388D02*
X16733539Y-15119246D01*
X16733539Y-15119246D02*
X16743063Y-15100198D01*
X16743063Y-15100198D02*
X16752587Y-15090674D01*
X16752587Y-15090674D02*
X16771634Y-15081150D01*
X16771634Y-15081150D02*
X16800206Y-15081150D01*
X16800206Y-15081150D02*
X16819253Y-15090674D01*
X16819253Y-15090674D02*
X16828777Y-15100198D01*
X16828777Y-15100198D02*
X16838301Y-15119246D01*
X16838301Y-15119246D02*
X16838301Y-15176388D01*
X16838301Y-15176388D02*
X16828777Y-15195436D01*
X16828777Y-15195436D02*
X16819253Y-15204960D01*
X16819253Y-15204960D02*
X16800206Y-15214484D01*
X16800206Y-15214484D02*
X16771634Y-15214484D01*
X16952587Y-15214484D02*
X16933539Y-15204960D01*
X16933539Y-15204960D02*
X16924015Y-15185912D01*
X16924015Y-15185912D02*
X16924015Y-15014484D01*
X17104968Y-15204960D02*
X17085920Y-15214484D01*
X17085920Y-15214484D02*
X17047825Y-15214484D01*
X17047825Y-15214484D02*
X17028777Y-15204960D01*
X17028777Y-15204960D02*
X17019253Y-15185912D01*
X17019253Y-15185912D02*
X17019253Y-15109722D01*
X17019253Y-15109722D02*
X17028777Y-15090674D01*
X17028777Y-15090674D02*
X17047825Y-15081150D01*
X17047825Y-15081150D02*
X17085920Y-15081150D01*
X17085920Y-15081150D02*
X17104968Y-15090674D01*
X17104968Y-15090674D02*
X17114492Y-15109722D01*
X17114492Y-15109722D02*
X17114492Y-15128769D01*
X17114492Y-15128769D02*
X17019253Y-15147817D01*
X17190682Y-15204960D02*
X17209730Y-15214484D01*
X17209730Y-15214484D02*
X17247825Y-15214484D01*
X17247825Y-15214484D02*
X17266873Y-15204960D01*
X17266873Y-15204960D02*
X17276396Y-15185912D01*
X17276396Y-15185912D02*
X17276396Y-15176388D01*
X17276396Y-15176388D02*
X17266873Y-15157341D01*
X17266873Y-15157341D02*
X17247825Y-15147817D01*
X17247825Y-15147817D02*
X17219253Y-15147817D01*
X17219253Y-15147817D02*
X17200206Y-15138293D01*
X17200206Y-15138293D02*
X17190682Y-15119246D01*
X17190682Y-15119246D02*
X17190682Y-15109722D01*
X17190682Y-15109722D02*
X17200206Y-15090674D01*
X17200206Y-15090674D02*
X17219253Y-15081150D01*
X17219253Y-15081150D02*
X17247825Y-15081150D01*
X17247825Y-15081150D02*
X17266873Y-15090674D01*
X17343063Y-15290674D02*
X17352587Y-15281150D01*
X17352587Y-15281150D02*
X17371634Y-15252579D01*
X17371634Y-15252579D02*
X17381158Y-15233531D01*
X17381158Y-15233531D02*
X17390682Y-15204960D01*
X17390682Y-15204960D02*
X17400206Y-15157341D01*
X17400206Y-15157341D02*
X17400206Y-15119246D01*
X17400206Y-15119246D02*
X17390682Y-15071627D01*
X17390682Y-15071627D02*
X17381158Y-15043055D01*
X17381158Y-15043055D02*
X17371634Y-15024008D01*
X17371634Y-15024008D02*
X17352587Y-14995436D01*
X17352587Y-14995436D02*
X17343063Y-14985912D01*
X17704968Y-15290674D02*
X17695444Y-15281150D01*
X17695444Y-15281150D02*
X17676396Y-15252579D01*
X17676396Y-15252579D02*
X17666873Y-15233531D01*
X17666873Y-15233531D02*
X17657349Y-15204960D01*
X17657349Y-15204960D02*
X17647825Y-15157341D01*
X17647825Y-15157341D02*
X17647825Y-15119246D01*
X17647825Y-15119246D02*
X17657349Y-15071627D01*
X17657349Y-15071627D02*
X17666873Y-15043055D01*
X17666873Y-15043055D02*
X17676396Y-15024008D01*
X17676396Y-15024008D02*
X17695444Y-14995436D01*
X17695444Y-14995436D02*
X17704968Y-14985912D01*
X17781158Y-15081150D02*
X17781158Y-15214484D01*
X17781158Y-15100198D02*
X17790682Y-15090674D01*
X17790682Y-15090674D02*
X17809730Y-15081150D01*
X17809730Y-15081150D02*
X17838301Y-15081150D01*
X17838301Y-15081150D02*
X17857349Y-15090674D01*
X17857349Y-15090674D02*
X17866873Y-15109722D01*
X17866873Y-15109722D02*
X17866873Y-15214484D01*
X17990682Y-15214484D02*
X17971634Y-15204960D01*
X17971634Y-15204960D02*
X17962111Y-15195436D01*
X17962111Y-15195436D02*
X17952587Y-15176388D01*
X17952587Y-15176388D02*
X17952587Y-15119246D01*
X17952587Y-15119246D02*
X17962111Y-15100198D01*
X17962111Y-15100198D02*
X17971634Y-15090674D01*
X17971634Y-15090674D02*
X17990682Y-15081150D01*
X17990682Y-15081150D02*
X18019254Y-15081150D01*
X18019254Y-15081150D02*
X18038301Y-15090674D01*
X18038301Y-15090674D02*
X18047825Y-15100198D01*
X18047825Y-15100198D02*
X18057349Y-15119246D01*
X18057349Y-15119246D02*
X18057349Y-15176388D01*
X18057349Y-15176388D02*
X18047825Y-15195436D01*
X18047825Y-15195436D02*
X18038301Y-15204960D01*
X18038301Y-15204960D02*
X18019254Y-15214484D01*
X18019254Y-15214484D02*
X17990682Y-15214484D01*
X18114492Y-15081150D02*
X18190682Y-15081150D01*
X18143063Y-15014484D02*
X18143063Y-15185912D01*
X18143063Y-15185912D02*
X18152587Y-15204960D01*
X18152587Y-15204960D02*
X18171634Y-15214484D01*
X18171634Y-15214484D02*
X18190682Y-15214484D01*
X18409730Y-15081150D02*
X18409730Y-15281150D01*
X18409730Y-15090674D02*
X18428777Y-15081150D01*
X18428777Y-15081150D02*
X18466873Y-15081150D01*
X18466873Y-15081150D02*
X18485920Y-15090674D01*
X18485920Y-15090674D02*
X18495444Y-15100198D01*
X18495444Y-15100198D02*
X18504968Y-15119246D01*
X18504968Y-15119246D02*
X18504968Y-15176388D01*
X18504968Y-15176388D02*
X18495444Y-15195436D01*
X18495444Y-15195436D02*
X18485920Y-15204960D01*
X18485920Y-15204960D02*
X18466873Y-15214484D01*
X18466873Y-15214484D02*
X18428777Y-15214484D01*
X18428777Y-15214484D02*
X18409730Y-15204960D01*
X18619254Y-15214484D02*
X18600206Y-15204960D01*
X18600206Y-15204960D02*
X18590682Y-15185912D01*
X18590682Y-15185912D02*
X18590682Y-15014484D01*
X18781158Y-15214484D02*
X18781158Y-15109722D01*
X18781158Y-15109722D02*
X18771635Y-15090674D01*
X18771635Y-15090674D02*
X18752587Y-15081150D01*
X18752587Y-15081150D02*
X18714492Y-15081150D01*
X18714492Y-15081150D02*
X18695444Y-15090674D01*
X18781158Y-15204960D02*
X18762111Y-15214484D01*
X18762111Y-15214484D02*
X18714492Y-15214484D01*
X18714492Y-15214484D02*
X18695444Y-15204960D01*
X18695444Y-15204960D02*
X18685920Y-15185912D01*
X18685920Y-15185912D02*
X18685920Y-15166865D01*
X18685920Y-15166865D02*
X18695444Y-15147817D01*
X18695444Y-15147817D02*
X18714492Y-15138293D01*
X18714492Y-15138293D02*
X18762111Y-15138293D01*
X18762111Y-15138293D02*
X18781158Y-15128769D01*
X18847825Y-15081150D02*
X18924015Y-15081150D01*
X18876396Y-15014484D02*
X18876396Y-15185912D01*
X18876396Y-15185912D02*
X18885920Y-15204960D01*
X18885920Y-15204960D02*
X18904968Y-15214484D01*
X18904968Y-15214484D02*
X18924015Y-15214484D01*
X19066873Y-15204960D02*
X19047825Y-15214484D01*
X19047825Y-15214484D02*
X19009730Y-15214484D01*
X19009730Y-15214484D02*
X18990682Y-15204960D01*
X18990682Y-15204960D02*
X18981158Y-15185912D01*
X18981158Y-15185912D02*
X18981158Y-15109722D01*
X18981158Y-15109722D02*
X18990682Y-15090674D01*
X18990682Y-15090674D02*
X19009730Y-15081150D01*
X19009730Y-15081150D02*
X19047825Y-15081150D01*
X19047825Y-15081150D02*
X19066873Y-15090674D01*
X19066873Y-15090674D02*
X19076396Y-15109722D01*
X19076396Y-15109722D02*
X19076396Y-15128769D01*
X19076396Y-15128769D02*
X18981158Y-15147817D01*
X19247825Y-15214484D02*
X19247825Y-15014484D01*
X19247825Y-15204960D02*
X19228777Y-15214484D01*
X19228777Y-15214484D02*
X19190682Y-15214484D01*
X19190682Y-15214484D02*
X19171635Y-15204960D01*
X19171635Y-15204960D02*
X19162111Y-15195436D01*
X19162111Y-15195436D02*
X19152587Y-15176388D01*
X19152587Y-15176388D02*
X19152587Y-15119246D01*
X19152587Y-15119246D02*
X19162111Y-15100198D01*
X19162111Y-15100198D02*
X19171635Y-15090674D01*
X19171635Y-15090674D02*
X19190682Y-15081150D01*
X19190682Y-15081150D02*
X19228777Y-15081150D01*
X19228777Y-15081150D02*
X19247825Y-15090674D01*
X19324016Y-15290674D02*
X19333539Y-15281150D01*
X19333539Y-15281150D02*
X19352587Y-15252579D01*
X19352587Y-15252579D02*
X19362111Y-15233531D01*
X19362111Y-15233531D02*
X19371635Y-15204960D01*
X19371635Y-15204960D02*
X19381158Y-15157341D01*
X19381158Y-15157341D02*
X19381158Y-15119246D01*
X19381158Y-15119246D02*
X19371635Y-15071627D01*
X19371635Y-15071627D02*
X19362111Y-15043055D01*
X19362111Y-15043055D02*
X19352587Y-15024008D01*
X19352587Y-15024008D02*
X19333539Y-14995436D01*
X19333539Y-14995436D02*
X19324016Y-14985912D01*
X12568000Y-15443000D02*
G75*
G03*
X12368000Y-15443000I-100000J0D01*
G01*
X12368000Y-15443000D02*
G75*
G03*
X12568000Y-15443000I100000J0D01*
G01*
X12809729Y-15334484D02*
X12933539Y-15334484D01*
X12933539Y-15334484D02*
X12866872Y-15410674D01*
X12866872Y-15410674D02*
X12895443Y-15410674D01*
X12895443Y-15410674D02*
X12914491Y-15420198D01*
X12914491Y-15420198D02*
X12924015Y-15429722D01*
X12924015Y-15429722D02*
X12933539Y-15448769D01*
X12933539Y-15448769D02*
X12933539Y-15496388D01*
X12933539Y-15496388D02*
X12924015Y-15515436D01*
X12924015Y-15515436D02*
X12914491Y-15524960D01*
X12914491Y-15524960D02*
X12895443Y-15534484D01*
X12895443Y-15534484D02*
X12838301Y-15534484D01*
X12838301Y-15534484D02*
X12819253Y-15524960D01*
X12819253Y-15524960D02*
X12809729Y-15515436D01*
X13019253Y-15515436D02*
X13028777Y-15524960D01*
X13028777Y-15524960D02*
X13019253Y-15534484D01*
X13019253Y-15534484D02*
X13009729Y-15524960D01*
X13009729Y-15524960D02*
X13019253Y-15515436D01*
X13019253Y-15515436D02*
X13019253Y-15534484D01*
X13095443Y-15334484D02*
X13228777Y-15334484D01*
X13228777Y-15334484D02*
X13143062Y-15534484D01*
X13333539Y-15420198D02*
X13314491Y-15410674D01*
X13314491Y-15410674D02*
X13304967Y-15401150D01*
X13304967Y-15401150D02*
X13295443Y-15382103D01*
X13295443Y-15382103D02*
X13295443Y-15372579D01*
X13295443Y-15372579D02*
X13304967Y-15353531D01*
X13304967Y-15353531D02*
X13314491Y-15344008D01*
X13314491Y-15344008D02*
X13333539Y-15334484D01*
X13333539Y-15334484D02*
X13371634Y-15334484D01*
X13371634Y-15334484D02*
X13390682Y-15344008D01*
X13390682Y-15344008D02*
X13400205Y-15353531D01*
X13400205Y-15353531D02*
X13409729Y-15372579D01*
X13409729Y-15372579D02*
X13409729Y-15382103D01*
X13409729Y-15382103D02*
X13400205Y-15401150D01*
X13400205Y-15401150D02*
X13390682Y-15410674D01*
X13390682Y-15410674D02*
X13371634Y-15420198D01*
X13371634Y-15420198D02*
X13333539Y-15420198D01*
X13333539Y-15420198D02*
X13314491Y-15429722D01*
X13314491Y-15429722D02*
X13304967Y-15439246D01*
X13304967Y-15439246D02*
X13295443Y-15458293D01*
X13295443Y-15458293D02*
X13295443Y-15496388D01*
X13295443Y-15496388D02*
X13304967Y-15515436D01*
X13304967Y-15515436D02*
X13314491Y-15524960D01*
X13314491Y-15524960D02*
X13333539Y-15534484D01*
X13333539Y-15534484D02*
X13371634Y-15534484D01*
X13371634Y-15534484D02*
X13390682Y-15524960D01*
X13390682Y-15524960D02*
X13400205Y-15515436D01*
X13400205Y-15515436D02*
X13409729Y-15496388D01*
X13409729Y-15496388D02*
X13409729Y-15458293D01*
X13409729Y-15458293D02*
X13400205Y-15439246D01*
X13400205Y-15439246D02*
X13390682Y-15429722D01*
X13390682Y-15429722D02*
X13371634Y-15420198D01*
X13590682Y-15334484D02*
X13495443Y-15334484D01*
X13495443Y-15334484D02*
X13485920Y-15429722D01*
X13485920Y-15429722D02*
X13495443Y-15420198D01*
X13495443Y-15420198D02*
X13514491Y-15410674D01*
X13514491Y-15410674D02*
X13562110Y-15410674D01*
X13562110Y-15410674D02*
X13581158Y-15420198D01*
X13581158Y-15420198D02*
X13590682Y-15429722D01*
X13590682Y-15429722D02*
X13600205Y-15448769D01*
X13600205Y-15448769D02*
X13600205Y-15496388D01*
X13600205Y-15496388D02*
X13590682Y-15515436D01*
X13590682Y-15515436D02*
X13581158Y-15524960D01*
X13581158Y-15524960D02*
X13562110Y-15534484D01*
X13562110Y-15534484D02*
X13514491Y-15534484D01*
X13514491Y-15534484D02*
X13495443Y-15524960D01*
X13495443Y-15524960D02*
X13485920Y-15515436D01*
X13685920Y-15534484D02*
X13685920Y-15401150D01*
X13685920Y-15420198D02*
X13695443Y-15410674D01*
X13695443Y-15410674D02*
X13714491Y-15401150D01*
X13714491Y-15401150D02*
X13743063Y-15401150D01*
X13743063Y-15401150D02*
X13762110Y-15410674D01*
X13762110Y-15410674D02*
X13771634Y-15429722D01*
X13771634Y-15429722D02*
X13771634Y-15534484D01*
X13771634Y-15429722D02*
X13781158Y-15410674D01*
X13781158Y-15410674D02*
X13800205Y-15401150D01*
X13800205Y-15401150D02*
X13828777Y-15401150D01*
X13828777Y-15401150D02*
X13847824Y-15410674D01*
X13847824Y-15410674D02*
X13857348Y-15429722D01*
X13857348Y-15429722D02*
X13857348Y-15534484D01*
X13952586Y-15534484D02*
X13952586Y-15401150D01*
X13952586Y-15420198D02*
X13962110Y-15410674D01*
X13962110Y-15410674D02*
X13981158Y-15401150D01*
X13981158Y-15401150D02*
X14009729Y-15401150D01*
X14009729Y-15401150D02*
X14028777Y-15410674D01*
X14028777Y-15410674D02*
X14038301Y-15429722D01*
X14038301Y-15429722D02*
X14038301Y-15534484D01*
X14038301Y-15429722D02*
X14047824Y-15410674D01*
X14047824Y-15410674D02*
X14066872Y-15401150D01*
X14066872Y-15401150D02*
X14095443Y-15401150D01*
X14095443Y-15401150D02*
X14114491Y-15410674D01*
X14114491Y-15410674D02*
X14124015Y-15429722D01*
X14124015Y-15429722D02*
X14124015Y-15534484D01*
X14514491Y-15324960D02*
X14343063Y-15582103D01*
X14771634Y-15334484D02*
X14790682Y-15334484D01*
X14790682Y-15334484D02*
X14809729Y-15344008D01*
X14809729Y-15344008D02*
X14819253Y-15353531D01*
X14819253Y-15353531D02*
X14828777Y-15372579D01*
X14828777Y-15372579D02*
X14838301Y-15410674D01*
X14838301Y-15410674D02*
X14838301Y-15458293D01*
X14838301Y-15458293D02*
X14828777Y-15496388D01*
X14828777Y-15496388D02*
X14819253Y-15515436D01*
X14819253Y-15515436D02*
X14809729Y-15524960D01*
X14809729Y-15524960D02*
X14790682Y-15534484D01*
X14790682Y-15534484D02*
X14771634Y-15534484D01*
X14771634Y-15534484D02*
X14752586Y-15524960D01*
X14752586Y-15524960D02*
X14743063Y-15515436D01*
X14743063Y-15515436D02*
X14733539Y-15496388D01*
X14733539Y-15496388D02*
X14724015Y-15458293D01*
X14724015Y-15458293D02*
X14724015Y-15410674D01*
X14724015Y-15410674D02*
X14733539Y-15372579D01*
X14733539Y-15372579D02*
X14743063Y-15353531D01*
X14743063Y-15353531D02*
X14752586Y-15344008D01*
X14752586Y-15344008D02*
X14771634Y-15334484D01*
X14924015Y-15515436D02*
X14933539Y-15524960D01*
X14933539Y-15524960D02*
X14924015Y-15534484D01*
X14924015Y-15534484D02*
X14914491Y-15524960D01*
X14914491Y-15524960D02*
X14924015Y-15515436D01*
X14924015Y-15515436D02*
X14924015Y-15534484D01*
X15124015Y-15534484D02*
X15009729Y-15534484D01*
X15066872Y-15534484D02*
X15066872Y-15334484D01*
X15066872Y-15334484D02*
X15047825Y-15363055D01*
X15047825Y-15363055D02*
X15028777Y-15382103D01*
X15028777Y-15382103D02*
X15009729Y-15391627D01*
X15295444Y-15401150D02*
X15295444Y-15534484D01*
X15247825Y-15324960D02*
X15200206Y-15467817D01*
X15200206Y-15467817D02*
X15324015Y-15467817D01*
X15409729Y-15534484D02*
X15447825Y-15534484D01*
X15447825Y-15534484D02*
X15466872Y-15524960D01*
X15466872Y-15524960D02*
X15476396Y-15515436D01*
X15476396Y-15515436D02*
X15495444Y-15486865D01*
X15495444Y-15486865D02*
X15504967Y-15448769D01*
X15504967Y-15448769D02*
X15504967Y-15372579D01*
X15504967Y-15372579D02*
X15495444Y-15353531D01*
X15495444Y-15353531D02*
X15485920Y-15344008D01*
X15485920Y-15344008D02*
X15466872Y-15334484D01*
X15466872Y-15334484D02*
X15428777Y-15334484D01*
X15428777Y-15334484D02*
X15409729Y-15344008D01*
X15409729Y-15344008D02*
X15400206Y-15353531D01*
X15400206Y-15353531D02*
X15390682Y-15372579D01*
X15390682Y-15372579D02*
X15390682Y-15420198D01*
X15390682Y-15420198D02*
X15400206Y-15439246D01*
X15400206Y-15439246D02*
X15409729Y-15448769D01*
X15409729Y-15448769D02*
X15428777Y-15458293D01*
X15428777Y-15458293D02*
X15466872Y-15458293D01*
X15466872Y-15458293D02*
X15485920Y-15448769D01*
X15485920Y-15448769D02*
X15495444Y-15439246D01*
X15495444Y-15439246D02*
X15504967Y-15420198D01*
X15628777Y-15334484D02*
X15647825Y-15334484D01*
X15647825Y-15334484D02*
X15666872Y-15344008D01*
X15666872Y-15344008D02*
X15676396Y-15353531D01*
X15676396Y-15353531D02*
X15685920Y-15372579D01*
X15685920Y-15372579D02*
X15695444Y-15410674D01*
X15695444Y-15410674D02*
X15695444Y-15458293D01*
X15695444Y-15458293D02*
X15685920Y-15496388D01*
X15685920Y-15496388D02*
X15676396Y-15515436D01*
X15676396Y-15515436D02*
X15666872Y-15524960D01*
X15666872Y-15524960D02*
X15647825Y-15534484D01*
X15647825Y-15534484D02*
X15628777Y-15534484D01*
X15628777Y-15534484D02*
X15609729Y-15524960D01*
X15609729Y-15524960D02*
X15600206Y-15515436D01*
X15600206Y-15515436D02*
X15590682Y-15496388D01*
X15590682Y-15496388D02*
X15581158Y-15458293D01*
X15581158Y-15458293D02*
X15581158Y-15410674D01*
X15581158Y-15410674D02*
X15590682Y-15372579D01*
X15590682Y-15372579D02*
X15600206Y-15353531D01*
X15600206Y-15353531D02*
X15609729Y-15344008D01*
X15609729Y-15344008D02*
X15628777Y-15334484D01*
X15771634Y-15334484D02*
X15771634Y-15372579D01*
X15847825Y-15334484D02*
X15847825Y-15372579D01*
X16143063Y-15610674D02*
X16133539Y-15601150D01*
X16133539Y-15601150D02*
X16114491Y-15572579D01*
X16114491Y-15572579D02*
X16104968Y-15553531D01*
X16104968Y-15553531D02*
X16095444Y-15524960D01*
X16095444Y-15524960D02*
X16085920Y-15477341D01*
X16085920Y-15477341D02*
X16085920Y-15439246D01*
X16085920Y-15439246D02*
X16095444Y-15391627D01*
X16095444Y-15391627D02*
X16104968Y-15363055D01*
X16104968Y-15363055D02*
X16114491Y-15344008D01*
X16114491Y-15344008D02*
X16133539Y-15315436D01*
X16133539Y-15315436D02*
X16143063Y-15305912D01*
X16324015Y-15534484D02*
X16209729Y-15534484D01*
X16266872Y-15534484D02*
X16266872Y-15334484D01*
X16266872Y-15334484D02*
X16247825Y-15363055D01*
X16247825Y-15363055D02*
X16228777Y-15382103D01*
X16228777Y-15382103D02*
X16209729Y-15391627D01*
X16562110Y-15534484D02*
X16562110Y-15334484D01*
X16647825Y-15534484D02*
X16647825Y-15429722D01*
X16647825Y-15429722D02*
X16638301Y-15410674D01*
X16638301Y-15410674D02*
X16619253Y-15401150D01*
X16619253Y-15401150D02*
X16590682Y-15401150D01*
X16590682Y-15401150D02*
X16571634Y-15410674D01*
X16571634Y-15410674D02*
X16562110Y-15420198D01*
X16771634Y-15534484D02*
X16752587Y-15524960D01*
X16752587Y-15524960D02*
X16743063Y-15515436D01*
X16743063Y-15515436D02*
X16733539Y-15496388D01*
X16733539Y-15496388D02*
X16733539Y-15439246D01*
X16733539Y-15439246D02*
X16743063Y-15420198D01*
X16743063Y-15420198D02*
X16752587Y-15410674D01*
X16752587Y-15410674D02*
X16771634Y-15401150D01*
X16771634Y-15401150D02*
X16800206Y-15401150D01*
X16800206Y-15401150D02*
X16819253Y-15410674D01*
X16819253Y-15410674D02*
X16828777Y-15420198D01*
X16828777Y-15420198D02*
X16838301Y-15439246D01*
X16838301Y-15439246D02*
X16838301Y-15496388D01*
X16838301Y-15496388D02*
X16828777Y-15515436D01*
X16828777Y-15515436D02*
X16819253Y-15524960D01*
X16819253Y-15524960D02*
X16800206Y-15534484D01*
X16800206Y-15534484D02*
X16771634Y-15534484D01*
X16952587Y-15534484D02*
X16933539Y-15524960D01*
X16933539Y-15524960D02*
X16924015Y-15505912D01*
X16924015Y-15505912D02*
X16924015Y-15334484D01*
X17104968Y-15524960D02*
X17085920Y-15534484D01*
X17085920Y-15534484D02*
X17047825Y-15534484D01*
X17047825Y-15534484D02*
X17028777Y-15524960D01*
X17028777Y-15524960D02*
X17019253Y-15505912D01*
X17019253Y-15505912D02*
X17019253Y-15429722D01*
X17019253Y-15429722D02*
X17028777Y-15410674D01*
X17028777Y-15410674D02*
X17047825Y-15401150D01*
X17047825Y-15401150D02*
X17085920Y-15401150D01*
X17085920Y-15401150D02*
X17104968Y-15410674D01*
X17104968Y-15410674D02*
X17114492Y-15429722D01*
X17114492Y-15429722D02*
X17114492Y-15448769D01*
X17114492Y-15448769D02*
X17019253Y-15467817D01*
X17181158Y-15610674D02*
X17190682Y-15601150D01*
X17190682Y-15601150D02*
X17209730Y-15572579D01*
X17209730Y-15572579D02*
X17219253Y-15553531D01*
X17219253Y-15553531D02*
X17228777Y-15524960D01*
X17228777Y-15524960D02*
X17238301Y-15477341D01*
X17238301Y-15477341D02*
X17238301Y-15439246D01*
X17238301Y-15439246D02*
X17228777Y-15391627D01*
X17228777Y-15391627D02*
X17219253Y-15363055D01*
X17219253Y-15363055D02*
X17209730Y-15344008D01*
X17209730Y-15344008D02*
X17190682Y-15315436D01*
X17190682Y-15315436D02*
X17181158Y-15305912D01*
X17543063Y-15610674D02*
X17533539Y-15601150D01*
X17533539Y-15601150D02*
X17514492Y-15572579D01*
X17514492Y-15572579D02*
X17504968Y-15553531D01*
X17504968Y-15553531D02*
X17495444Y-15524960D01*
X17495444Y-15524960D02*
X17485920Y-15477341D01*
X17485920Y-15477341D02*
X17485920Y-15439246D01*
X17485920Y-15439246D02*
X17495444Y-15391627D01*
X17495444Y-15391627D02*
X17504968Y-15363055D01*
X17504968Y-15363055D02*
X17514492Y-15344008D01*
X17514492Y-15344008D02*
X17533539Y-15315436D01*
X17533539Y-15315436D02*
X17543063Y-15305912D01*
X17619253Y-15401150D02*
X17619253Y-15534484D01*
X17619253Y-15420198D02*
X17628777Y-15410674D01*
X17628777Y-15410674D02*
X17647825Y-15401150D01*
X17647825Y-15401150D02*
X17676396Y-15401150D01*
X17676396Y-15401150D02*
X17695444Y-15410674D01*
X17695444Y-15410674D02*
X17704968Y-15429722D01*
X17704968Y-15429722D02*
X17704968Y-15534484D01*
X17828777Y-15534484D02*
X17809730Y-15524960D01*
X17809730Y-15524960D02*
X17800206Y-15515436D01*
X17800206Y-15515436D02*
X17790682Y-15496388D01*
X17790682Y-15496388D02*
X17790682Y-15439246D01*
X17790682Y-15439246D02*
X17800206Y-15420198D01*
X17800206Y-15420198D02*
X17809730Y-15410674D01*
X17809730Y-15410674D02*
X17828777Y-15401150D01*
X17828777Y-15401150D02*
X17857349Y-15401150D01*
X17857349Y-15401150D02*
X17876396Y-15410674D01*
X17876396Y-15410674D02*
X17885920Y-15420198D01*
X17885920Y-15420198D02*
X17895444Y-15439246D01*
X17895444Y-15439246D02*
X17895444Y-15496388D01*
X17895444Y-15496388D02*
X17885920Y-15515436D01*
X17885920Y-15515436D02*
X17876396Y-15524960D01*
X17876396Y-15524960D02*
X17857349Y-15534484D01*
X17857349Y-15534484D02*
X17828777Y-15534484D01*
X17952587Y-15401150D02*
X18028777Y-15401150D01*
X17981158Y-15334484D02*
X17981158Y-15505912D01*
X17981158Y-15505912D02*
X17990682Y-15524960D01*
X17990682Y-15524960D02*
X18009730Y-15534484D01*
X18009730Y-15534484D02*
X18028777Y-15534484D01*
X18247825Y-15401150D02*
X18247825Y-15601150D01*
X18247825Y-15410674D02*
X18266873Y-15401150D01*
X18266873Y-15401150D02*
X18304968Y-15401150D01*
X18304968Y-15401150D02*
X18324015Y-15410674D01*
X18324015Y-15410674D02*
X18333539Y-15420198D01*
X18333539Y-15420198D02*
X18343063Y-15439246D01*
X18343063Y-15439246D02*
X18343063Y-15496388D01*
X18343063Y-15496388D02*
X18333539Y-15515436D01*
X18333539Y-15515436D02*
X18324015Y-15524960D01*
X18324015Y-15524960D02*
X18304968Y-15534484D01*
X18304968Y-15534484D02*
X18266873Y-15534484D01*
X18266873Y-15534484D02*
X18247825Y-15524960D01*
X18457349Y-15534484D02*
X18438301Y-15524960D01*
X18438301Y-15524960D02*
X18428777Y-15505912D01*
X18428777Y-15505912D02*
X18428777Y-15334484D01*
X18619254Y-15534484D02*
X18619254Y-15429722D01*
X18619254Y-15429722D02*
X18609730Y-15410674D01*
X18609730Y-15410674D02*
X18590682Y-15401150D01*
X18590682Y-15401150D02*
X18552587Y-15401150D01*
X18552587Y-15401150D02*
X18533539Y-15410674D01*
X18619254Y-15524960D02*
X18600206Y-15534484D01*
X18600206Y-15534484D02*
X18552587Y-15534484D01*
X18552587Y-15534484D02*
X18533539Y-15524960D01*
X18533539Y-15524960D02*
X18524015Y-15505912D01*
X18524015Y-15505912D02*
X18524015Y-15486865D01*
X18524015Y-15486865D02*
X18533539Y-15467817D01*
X18533539Y-15467817D02*
X18552587Y-15458293D01*
X18552587Y-15458293D02*
X18600206Y-15458293D01*
X18600206Y-15458293D02*
X18619254Y-15448769D01*
X18685920Y-15401150D02*
X18762111Y-15401150D01*
X18714492Y-15334484D02*
X18714492Y-15505912D01*
X18714492Y-15505912D02*
X18724015Y-15524960D01*
X18724015Y-15524960D02*
X18743063Y-15534484D01*
X18743063Y-15534484D02*
X18762111Y-15534484D01*
X18904968Y-15524960D02*
X18885920Y-15534484D01*
X18885920Y-15534484D02*
X18847825Y-15534484D01*
X18847825Y-15534484D02*
X18828777Y-15524960D01*
X18828777Y-15524960D02*
X18819254Y-15505912D01*
X18819254Y-15505912D02*
X18819254Y-15429722D01*
X18819254Y-15429722D02*
X18828777Y-15410674D01*
X18828777Y-15410674D02*
X18847825Y-15401150D01*
X18847825Y-15401150D02*
X18885920Y-15401150D01*
X18885920Y-15401150D02*
X18904968Y-15410674D01*
X18904968Y-15410674D02*
X18914492Y-15429722D01*
X18914492Y-15429722D02*
X18914492Y-15448769D01*
X18914492Y-15448769D02*
X18819254Y-15467817D01*
X19085920Y-15534484D02*
X19085920Y-15334484D01*
X19085920Y-15524960D02*
X19066873Y-15534484D01*
X19066873Y-15534484D02*
X19028777Y-15534484D01*
X19028777Y-15534484D02*
X19009730Y-15524960D01*
X19009730Y-15524960D02*
X19000206Y-15515436D01*
X19000206Y-15515436D02*
X18990682Y-15496388D01*
X18990682Y-15496388D02*
X18990682Y-15439246D01*
X18990682Y-15439246D02*
X19000206Y-15420198D01*
X19000206Y-15420198D02*
X19009730Y-15410674D01*
X19009730Y-15410674D02*
X19028777Y-15401150D01*
X19028777Y-15401150D02*
X19066873Y-15401150D01*
X19066873Y-15401150D02*
X19085920Y-15410674D01*
X19162111Y-15610674D02*
X19171635Y-15601150D01*
X19171635Y-15601150D02*
X19190682Y-15572579D01*
X19190682Y-15572579D02*
X19200206Y-15553531D01*
X19200206Y-15553531D02*
X19209730Y-15524960D01*
X19209730Y-15524960D02*
X19219254Y-15477341D01*
X19219254Y-15477341D02*
X19219254Y-15439246D01*
X19219254Y-15439246D02*
X19209730Y-15391627D01*
X19209730Y-15391627D02*
X19200206Y-15363055D01*
X19200206Y-15363055D02*
X19190682Y-15344008D01*
X19190682Y-15344008D02*
X19171635Y-15315436D01*
X19171635Y-15315436D02*
X19162111Y-15305912D01*
M02*
