G04 #@! TF.GenerationSoftware,KiCad,Pcbnew,7.0.10*
G04 #@! TF.CreationDate,2024-02-18T19:41:56-05:00*
G04 #@! TF.ProjectId,linearlight,6c696e65-6172-46c6-9967-68742e6b6963,rev?*
G04 #@! TF.SameCoordinates,Original*
G04 #@! TF.FileFunction,Copper,L1,Top*
G04 #@! TF.FilePolarity,Positive*
%FSLAX46Y46*%
G04 Gerber Fmt 4.6, Leading zero omitted, Abs format (unit mm)*
G04 Created by KiCad (PCBNEW 7.0.10) date 2024-02-18 19:41:56*
%MOMM*%
%LPD*%
G01*
G04 APERTURE LIST*
G04 #@! TA.AperFunction,ComponentPad*
%ADD10C,1.600000*%
G04 #@! TD*
G04 #@! TA.AperFunction,ComponentPad*
%ADD11C,1.400000*%
G04 #@! TD*
G04 #@! TA.AperFunction,ComponentPad*
%ADD12O,1.400000X1.400000*%
G04 #@! TD*
G04 #@! TA.AperFunction,ComponentPad*
%ADD13R,2.400000X2.400000*%
G04 #@! TD*
G04 #@! TA.AperFunction,ComponentPad*
%ADD14C,2.400000*%
G04 #@! TD*
G04 #@! TA.AperFunction,ComponentPad*
%ADD15O,2.400000X2.400000*%
G04 #@! TD*
G04 #@! TA.AperFunction,ComponentPad*
%ADD16R,1.700000X1.700000*%
G04 #@! TD*
G04 #@! TA.AperFunction,ComponentPad*
%ADD17O,1.700000X1.700000*%
G04 #@! TD*
G04 #@! TA.AperFunction,ComponentPad*
%ADD18R,1.600000X1.600000*%
G04 #@! TD*
G04 #@! TA.AperFunction,ComponentPad*
%ADD19O,1.600000X1.600000*%
G04 #@! TD*
G04 #@! TA.AperFunction,ComponentPad*
%ADD20R,1.500000X1.500000*%
G04 #@! TD*
G04 #@! TA.AperFunction,ComponentPad*
%ADD21C,1.500000*%
G04 #@! TD*
G04 #@! TA.AperFunction,ComponentPad*
%ADD22R,1.800000X1.800000*%
G04 #@! TD*
G04 #@! TA.AperFunction,ComponentPad*
%ADD23C,1.800000*%
G04 #@! TD*
G04 #@! TA.AperFunction,ComponentPad*
%ADD24R,2.500000X2.500000*%
G04 #@! TD*
G04 #@! TA.AperFunction,ComponentPad*
%ADD25C,1.803400*%
G04 #@! TD*
G04 #@! TA.AperFunction,ComponentPad*
%ADD26C,2.000000*%
G04 #@! TD*
G04 #@! TA.AperFunction,ComponentPad*
%ADD27R,1.905000X2.000000*%
G04 #@! TD*
G04 #@! TA.AperFunction,ComponentPad*
%ADD28O,1.905000X2.000000*%
G04 #@! TD*
G04 #@! TA.AperFunction,HeatsinkPad*
%ADD29C,5.000000*%
G04 #@! TD*
G04 #@! TA.AperFunction,ComponentPad*
%ADD30C,2.286000*%
G04 #@! TD*
G04 #@! TA.AperFunction,ComponentPad*
%ADD31C,2.794000*%
G04 #@! TD*
G04 #@! TA.AperFunction,ComponentPad*
%ADD32C,4.572000*%
G04 #@! TD*
G04 #@! TA.AperFunction,ComponentPad*
%ADD33R,2.000000X1.200000*%
G04 #@! TD*
G04 #@! TA.AperFunction,ComponentPad*
%ADD34O,2.000000X1.200000*%
G04 #@! TD*
G04 #@! TA.AperFunction,ViaPad*
%ADD35C,0.800000*%
G04 #@! TD*
G04 #@! TA.AperFunction,Conductor*
%ADD36C,1.000000*%
G04 #@! TD*
G04 #@! TA.AperFunction,Conductor*
%ADD37C,0.250000*%
G04 #@! TD*
G04 #@! TA.AperFunction,Conductor*
%ADD38C,0.500000*%
G04 #@! TD*
G04 APERTURE END LIST*
D10*
X189230000Y-90825000D03*
X189230000Y-93325000D03*
D11*
X213868000Y-115824000D03*
D12*
X206248000Y-115824000D03*
D13*
X147400000Y-112395000D03*
D14*
X152400000Y-112395000D03*
X158640000Y-120015000D03*
D15*
X163720000Y-120015000D03*
D16*
X261620000Y-123825000D03*
D17*
X261620000Y-126365000D03*
X261620000Y-128905000D03*
X261620000Y-131445000D03*
D18*
X151765000Y-100457000D03*
D19*
X154305000Y-100457000D03*
X156845000Y-100457000D03*
X159385000Y-100457000D03*
X161925000Y-100457000D03*
X164465000Y-100457000D03*
X167005000Y-100457000D03*
X167005000Y-92837000D03*
X164465000Y-92837000D03*
X161925000Y-92837000D03*
X159385000Y-92837000D03*
X156845000Y-92837000D03*
X154305000Y-92837000D03*
X151765000Y-92837000D03*
D11*
X247650000Y-122555000D03*
D12*
X240030000Y-122555000D03*
D11*
X193294000Y-113284000D03*
D12*
X200914000Y-113284000D03*
D16*
X255905000Y-94488000D03*
D17*
X255905000Y-97028000D03*
X255905000Y-99568000D03*
X255905000Y-102108000D03*
X255905000Y-104648000D03*
X255905000Y-107188000D03*
X255905000Y-109728000D03*
X255905000Y-112268000D03*
X255905000Y-114808000D03*
X255905000Y-117348000D03*
X255905000Y-119888000D03*
X255905000Y-122428000D03*
X255905000Y-124968000D03*
X255905000Y-127508000D03*
X255905000Y-130048000D03*
X255905000Y-132588000D03*
X255905000Y-135128000D03*
X255905000Y-137668000D03*
X255905000Y-140208000D03*
D11*
X213868000Y-108204000D03*
D12*
X206248000Y-108204000D03*
D10*
X216535000Y-93980000D03*
D19*
X206375000Y-93980000D03*
D20*
X236580000Y-116840000D03*
D21*
X236580000Y-114300000D03*
X236580000Y-111760000D03*
D10*
X170180000Y-100290000D03*
X170180000Y-97790000D03*
D22*
X142875000Y-103505000D03*
D23*
X145415000Y-103505000D03*
D24*
X143510000Y-97155000D03*
X175260000Y-89535000D03*
D16*
X220345000Y-140208000D03*
D17*
X220345000Y-137668000D03*
X220345000Y-135128000D03*
X220345000Y-132588000D03*
X220345000Y-130048000D03*
X220345000Y-127508000D03*
X220345000Y-124968000D03*
X220345000Y-122428000D03*
X220345000Y-119888000D03*
X220345000Y-117348000D03*
X220345000Y-114808000D03*
X220345000Y-112268000D03*
X220345000Y-109728000D03*
X220345000Y-107188000D03*
X220345000Y-104648000D03*
X220345000Y-102108000D03*
X220345000Y-99568000D03*
X220345000Y-97028000D03*
X220345000Y-94488000D03*
D10*
X231755000Y-109855000D03*
X229255000Y-109855000D03*
D11*
X186055000Y-113665000D03*
D12*
X186055000Y-121285000D03*
D11*
X167005000Y-113665000D03*
D12*
X167005000Y-121285000D03*
D25*
X130810000Y-119587000D03*
X130810000Y-124587000D03*
X130810000Y-129587000D03*
X130810000Y-134587001D03*
X130810000Y-139587001D03*
D10*
X200680000Y-93980000D03*
X203180000Y-93980000D03*
D16*
X261620000Y-117475000D03*
D17*
X261620000Y-114935000D03*
X261620000Y-112395000D03*
X261620000Y-109855000D03*
X261620000Y-107315000D03*
X261620000Y-104775000D03*
X261620000Y-102235000D03*
X261620000Y-99695000D03*
D11*
X170180000Y-113665000D03*
D12*
X170180000Y-121285000D03*
D10*
X151790000Y-89662000D03*
X154290000Y-89662000D03*
D26*
X142519400Y-130175000D03*
X139065000Y-137795000D03*
D11*
X213868000Y-113284000D03*
D12*
X206248000Y-113284000D03*
D10*
X173355000Y-100330000D03*
X173355000Y-102830000D03*
D27*
X168275000Y-139700000D03*
D28*
X170815000Y-139700000D03*
X173355000Y-139700000D03*
D10*
X166985000Y-89535000D03*
X164485000Y-89535000D03*
D11*
X198755000Y-89535000D03*
D12*
X206375000Y-89535000D03*
D11*
X247650000Y-114300000D03*
D12*
X240030000Y-114300000D03*
D18*
X161925000Y-103505000D03*
D19*
X161925000Y-111125000D03*
D20*
X236580000Y-125095000D03*
D21*
X236580000Y-122555000D03*
X236580000Y-120015000D03*
D11*
X233680000Y-128270000D03*
D12*
X233680000Y-135890000D03*
D29*
X186690000Y-132842000D03*
D11*
X247650000Y-106045000D03*
D12*
X240030000Y-106045000D03*
D10*
X138470000Y-116840000D03*
X140970000Y-116840000D03*
D18*
X176525000Y-105127000D03*
D19*
X179065000Y-105127000D03*
X181605000Y-105127000D03*
X184145000Y-105127000D03*
X186685000Y-105127000D03*
X189225000Y-105127000D03*
X191765000Y-105127000D03*
X191765000Y-97507000D03*
X189225000Y-97507000D03*
X186685000Y-97507000D03*
X184145000Y-97507000D03*
X181605000Y-97507000D03*
X179065000Y-97507000D03*
X176525000Y-97507000D03*
D14*
X206265000Y-120015000D03*
D15*
X211345000Y-120015000D03*
D11*
X135890000Y-114935000D03*
D12*
X128270000Y-114935000D03*
D18*
X199385000Y-105156000D03*
D19*
X201925000Y-105156000D03*
X204465000Y-105156000D03*
X207005000Y-105156000D03*
X209545000Y-105156000D03*
X212085000Y-105156000D03*
X214625000Y-105156000D03*
X214625000Y-97536000D03*
X212085000Y-97536000D03*
X209545000Y-97536000D03*
X207005000Y-97536000D03*
X204465000Y-97536000D03*
X201925000Y-97536000D03*
X199385000Y-97536000D03*
D27*
X184150000Y-139700000D03*
D28*
X186690000Y-139700000D03*
X189230000Y-139700000D03*
D27*
X143510000Y-120650000D03*
D28*
X140970000Y-120650000D03*
X138430000Y-120650000D03*
D18*
X165735000Y-103505000D03*
D19*
X165735000Y-111125000D03*
D24*
X179705000Y-89535000D03*
D18*
X213360000Y-138430000D03*
D10*
X215860000Y-138430000D03*
D29*
X202565000Y-132842000D03*
D18*
X158115000Y-103505000D03*
D19*
X158115000Y-111125000D03*
D11*
X247650000Y-97790000D03*
D12*
X240030000Y-97790000D03*
D27*
X200025000Y-139700000D03*
D28*
X202565000Y-139700000D03*
X205105000Y-139700000D03*
D11*
X240030000Y-128270000D03*
D12*
X240030000Y-135890000D03*
D10*
X148590000Y-97175000D03*
X148590000Y-99675000D03*
D20*
X236580000Y-108585000D03*
D21*
X236580000Y-106045000D03*
X236580000Y-103505000D03*
D11*
X182880000Y-113665000D03*
D12*
X182880000Y-121285000D03*
D11*
X213868000Y-110744000D03*
D12*
X206248000Y-110744000D03*
D11*
X193294000Y-110744000D03*
D12*
X200914000Y-110744000D03*
D24*
X184150000Y-89535000D03*
X216408000Y-90424000D03*
D11*
X176530000Y-92710000D03*
D12*
X184150000Y-92710000D03*
D10*
X231755000Y-100330000D03*
X229255000Y-100330000D03*
D14*
X174515000Y-120015000D03*
D15*
X179595000Y-120015000D03*
D14*
X190390000Y-120015000D03*
D15*
X195470000Y-120015000D03*
D29*
X170815000Y-132842000D03*
D10*
X231715000Y-106680000D03*
X229215000Y-106680000D03*
X231775000Y-113030000D03*
X229275000Y-113030000D03*
D29*
X154940000Y-132842000D03*
D30*
X139700000Y-93091000D03*
X139700000Y-98171000D03*
X139700000Y-103251000D03*
X139700000Y-108331000D03*
D31*
X137160000Y-90551000D03*
X137160000Y-110871000D03*
D32*
X129540000Y-95631000D03*
X129540000Y-105791000D03*
D11*
X243205000Y-128270000D03*
D12*
X243205000Y-135890000D03*
D11*
X193294000Y-115824000D03*
D12*
X200914000Y-115824000D03*
D10*
X231775000Y-103505000D03*
X229275000Y-103505000D03*
D27*
X152400000Y-139700000D03*
D28*
X154940000Y-139700000D03*
X157480000Y-139700000D03*
D20*
X236580000Y-100330000D03*
D21*
X236580000Y-97790000D03*
X236580000Y-95250000D03*
D10*
X151658000Y-103632000D03*
X154158000Y-103632000D03*
D33*
X225428680Y-94488000D03*
D34*
X225428680Y-97028000D03*
X225428680Y-99568000D03*
X225428680Y-102108000D03*
X225428680Y-104648000D03*
X225428680Y-107188000D03*
X225428680Y-109728000D03*
X225428680Y-112268000D03*
X225428680Y-114808000D03*
X225428680Y-117348000D03*
X225428680Y-119888000D03*
X225428680Y-122428000D03*
X225428680Y-124968000D03*
X225428680Y-127508000D03*
X225428680Y-130048000D03*
X225428680Y-132588000D03*
X225428680Y-135128000D03*
X225428680Y-137668000D03*
X225428680Y-140208000D03*
X250825000Y-140205280D03*
X250825000Y-137665280D03*
X250828680Y-135128000D03*
X250828680Y-132588000D03*
X250828680Y-130048000D03*
X250828680Y-127508000D03*
X250828680Y-124968000D03*
X250828680Y-122428000D03*
X250828680Y-119888000D03*
X250828680Y-117348000D03*
X250828680Y-114808000D03*
X250828680Y-112268000D03*
X250828680Y-109728000D03*
X250828680Y-107188000D03*
X250828680Y-104648000D03*
X250828680Y-102108000D03*
X250828680Y-99568000D03*
X250828680Y-97028000D03*
X250828680Y-94488000D03*
D11*
X236855000Y-128270000D03*
D12*
X236855000Y-135890000D03*
D18*
X169545000Y-103505000D03*
D19*
X169545000Y-111125000D03*
D20*
X192405000Y-93705000D03*
D21*
X194945000Y-93705000D03*
X197485000Y-93705000D03*
D11*
X193294000Y-108204000D03*
D12*
X200914000Y-108204000D03*
D35*
X232410000Y-123825000D03*
X246380000Y-112395000D03*
D36*
X147400000Y-112395000D02*
X145415000Y-112395000D01*
X143510000Y-120650000D02*
X145415000Y-120650000D01*
X143510000Y-97155000D02*
X145415000Y-99060000D01*
D37*
X131630000Y-142425000D02*
X129483300Y-140278300D01*
D36*
X145415000Y-133098976D02*
X140718976Y-137795000D01*
D37*
X243205000Y-135890000D02*
X233680000Y-135890000D01*
X129483300Y-138486700D02*
X130175000Y-137795000D01*
D36*
X145415000Y-99060000D02*
X145415000Y-103505000D01*
X145415000Y-112395000D02*
X145415000Y-120650000D01*
X139700000Y-93345000D02*
X143510000Y-97155000D01*
X145415000Y-120650000D02*
X145415000Y-133098976D01*
D37*
X233680000Y-135890000D02*
X230505000Y-139065000D01*
D36*
X140718976Y-137795000D02*
X139065000Y-137795000D01*
D37*
X230505000Y-139065000D02*
X224722111Y-139065000D01*
X224722111Y-139065000D02*
X221362111Y-142425000D01*
X129483300Y-140278300D02*
X129483300Y-138486700D01*
D36*
X145415000Y-103505000D02*
X145415000Y-112395000D01*
D37*
X130175000Y-137795000D02*
X139065000Y-137795000D01*
D36*
X139700000Y-93091000D02*
X139700000Y-93345000D01*
D37*
X221362111Y-142425000D02*
X131630000Y-142425000D01*
D36*
X130810000Y-139587001D02*
X132722999Y-141500000D01*
X201777500Y-141500000D02*
X202565000Y-140712500D01*
X132722999Y-141500000D02*
X201777500Y-141500000D01*
X202565000Y-140712500D02*
X202565000Y-139700000D01*
D38*
X264160000Y-123825000D02*
X264160000Y-133985000D01*
X138430000Y-120650000D02*
X138430000Y-116880000D01*
X175260000Y-87200000D02*
X200660000Y-87200000D01*
X226728680Y-141508000D02*
X256637000Y-141508000D01*
X134620000Y-89535000D02*
X136955000Y-87200000D01*
X173702000Y-100330000D02*
X176525000Y-97507000D01*
X139700000Y-115610000D02*
X139700000Y-108331000D01*
X200680000Y-93980000D02*
X200680000Y-92690000D01*
X215138000Y-140208000D02*
X213360000Y-138430000D01*
X173355000Y-100330000D02*
X173702000Y-100330000D01*
X200680000Y-92690000D02*
X200660000Y-92670000D01*
X176530000Y-90805000D02*
X175260000Y-89535000D01*
X220345000Y-140208000D02*
X215138000Y-140208000D01*
X264160000Y-98630000D02*
X264160000Y-102235000D01*
X134620000Y-89535000D02*
X134620000Y-103251000D01*
X259080000Y-135255000D02*
X262890000Y-135255000D01*
X264160000Y-102235000D02*
X264160000Y-123825000D01*
X136955000Y-87200000D02*
X175260000Y-87200000D01*
X256637000Y-141508000D02*
X257810000Y-140335000D01*
X252730000Y-87200000D02*
X264160000Y-98630000D01*
X262890000Y-135255000D02*
X264160000Y-133985000D01*
X200660000Y-92670000D02*
X200660000Y-87200000D01*
X261620000Y-123825000D02*
X264160000Y-123825000D01*
X200680000Y-96241000D02*
X199385000Y-97536000D01*
X257810000Y-136525000D02*
X259080000Y-135255000D01*
X138470000Y-116840000D02*
X139700000Y-115610000D01*
X176530000Y-92710000D02*
X176530000Y-90805000D01*
X200680000Y-93980000D02*
X200680000Y-96241000D01*
X225428680Y-140208000D02*
X226728680Y-141508000D01*
X138430000Y-116880000D02*
X138470000Y-116840000D01*
X175260000Y-89535000D02*
X175260000Y-87200000D01*
X134620000Y-103251000D02*
X139700000Y-108331000D01*
X257810000Y-140335000D02*
X257810000Y-136525000D01*
X261620000Y-102235000D02*
X264160000Y-102235000D01*
X200660000Y-87200000D02*
X252730000Y-87200000D01*
D37*
X218144299Y-135667000D02*
X219858299Y-133953000D01*
X237522000Y-133953000D02*
X243205000Y-128270000D01*
X181387000Y-135667000D02*
X218144299Y-135667000D01*
X243205000Y-121920000D02*
X243205000Y-128270000D01*
X167005000Y-121285000D02*
X181387000Y-135667000D01*
X241300000Y-120015000D02*
X243205000Y-121920000D01*
X219858299Y-133953000D02*
X237522000Y-133953000D01*
X236580000Y-120015000D02*
X241300000Y-120015000D01*
X206248000Y-108204000D02*
X200914000Y-108204000D01*
X161180000Y-117475000D02*
X193870387Y-117475000D01*
X198070091Y-111047909D02*
X200914000Y-108204000D01*
X158640000Y-120015000D02*
X161180000Y-117475000D01*
X193870387Y-117475000D02*
X198070091Y-113275296D01*
X198070091Y-113275296D02*
X198070091Y-111047909D01*
X236855000Y-128270000D02*
X235055000Y-128270000D01*
X227647500Y-129857500D02*
X234102500Y-129857500D01*
X182880000Y-121285000D02*
X190468000Y-128873000D01*
X190468000Y-128873000D02*
X226663000Y-128873000D01*
X226663000Y-128873000D02*
X227647500Y-129857500D01*
X234102500Y-129857500D02*
X235055000Y-128905000D01*
X235055000Y-128270000D02*
X235055000Y-128905000D01*
X236580000Y-103505000D02*
X235055000Y-105030000D01*
X235055000Y-105030000D02*
X235055000Y-128270000D01*
X206248000Y-113284000D02*
X200914000Y-113284000D01*
X200914000Y-113284000D02*
X196164989Y-118033011D01*
X192886022Y-120015000D02*
X194868011Y-118033011D01*
X196164989Y-118033011D02*
X194868011Y-118033011D01*
X190390000Y-120015000D02*
X192886022Y-120015000D01*
X191103000Y-126333000D02*
X233648000Y-126333000D01*
X191103000Y-126333000D02*
X186055000Y-121285000D01*
X233648000Y-126333000D02*
X233680000Y-126365000D01*
X233680000Y-126365000D02*
X233680000Y-128270000D01*
X236580000Y-95250000D02*
X233680000Y-98150000D01*
X233680000Y-98150000D02*
X233680000Y-126365000D01*
X206265000Y-120015000D02*
X206265000Y-115841000D01*
X206265000Y-115841000D02*
X206248000Y-115824000D01*
X206248000Y-115824000D02*
X200914000Y-115824000D01*
X178435000Y-129540000D02*
X218175299Y-129540000D01*
X170180000Y-121285000D02*
X178435000Y-129540000D01*
X235505000Y-120460280D02*
X236329720Y-121285000D01*
X218175299Y-129540000D02*
X220048299Y-131413000D01*
X220048299Y-131413000D02*
X236887000Y-131413000D01*
X236329720Y-121285000D02*
X236855000Y-121285000D01*
X235505000Y-112835000D02*
X235505000Y-120460280D01*
X240030000Y-124460000D02*
X240030000Y-128270000D01*
X236580000Y-111760000D02*
X235505000Y-112835000D01*
X236855000Y-121285000D02*
X240030000Y-124460000D01*
X236887000Y-131413000D02*
X240030000Y-128270000D01*
X199789000Y-113631182D02*
X199789000Y-111869000D01*
X199789000Y-111869000D02*
X200914000Y-110744000D01*
X174515000Y-120015000D02*
X176373545Y-118156455D01*
X176373545Y-118156455D02*
X193966749Y-118156455D01*
X193966749Y-118156455D02*
X194796602Y-117326602D01*
X196093580Y-117326602D02*
X199789000Y-113631182D01*
X206248000Y-110744000D02*
X200914000Y-110744000D01*
X194796602Y-117326602D02*
X196093580Y-117326602D01*
X151658000Y-103632000D02*
X157406000Y-109380000D01*
X161770992Y-109380000D02*
X166055991Y-113665000D01*
X166055991Y-113665000D02*
X167005000Y-113665000D01*
X157406000Y-109380000D02*
X161770992Y-109380000D01*
X151765000Y-100457000D02*
X151765000Y-103525000D01*
X151765000Y-103525000D02*
X151658000Y-103632000D01*
X189230000Y-90825000D02*
X194945000Y-90825000D01*
X184150000Y-92710000D02*
X184150000Y-89535000D01*
X194945000Y-90825000D02*
X197465000Y-90825000D01*
X194945000Y-93705000D02*
X194945000Y-90825000D01*
X187940000Y-89535000D02*
X189230000Y-90825000D01*
X184150000Y-89535000D02*
X187940000Y-89535000D01*
X198755000Y-89535000D02*
X197465000Y-90825000D01*
X189866396Y-106680000D02*
X191390396Y-108204000D01*
X172720000Y-106680000D02*
X189866396Y-106680000D01*
X191390396Y-108204000D02*
X193294000Y-108204000D01*
X154285000Y-103505000D02*
X154158000Y-103632000D01*
X154305000Y-103485000D02*
X154158000Y-103632000D01*
X169545000Y-103505000D02*
X172720000Y-106680000D01*
X154305000Y-100457000D02*
X154305000Y-103485000D01*
X167005000Y-100457000D02*
X170013000Y-100457000D01*
X170013000Y-100457000D02*
X170180000Y-100290000D01*
X170180000Y-97790000D02*
X167132000Y-97790000D01*
X187590000Y-107580000D02*
X166000000Y-107580000D01*
X193294000Y-113284000D02*
X187590000Y-107580000D01*
X166000000Y-107580000D02*
X161925000Y-103505000D01*
X167132000Y-97790000D02*
X164465000Y-100457000D01*
X162640000Y-108030000D02*
X158115000Y-103505000D01*
X185500000Y-108030000D02*
X162640000Y-108030000D01*
X193294000Y-115824000D02*
X185500000Y-108030000D01*
X152971500Y-94043500D02*
X151765000Y-92837000D01*
X151790000Y-92812000D02*
X151765000Y-92837000D01*
X165445000Y-108930000D02*
X157865010Y-108930000D01*
X151790000Y-89662000D02*
X151790000Y-92812000D01*
X170180000Y-113665000D02*
X165445000Y-108930000D01*
X152971500Y-104036491D02*
X152971500Y-94043500D01*
X157865010Y-108930000D02*
X152971500Y-104036491D01*
X155430000Y-101455000D02*
X155430000Y-93962000D01*
X156210000Y-102235000D02*
X155430000Y-101455000D01*
X154290000Y-89662000D02*
X154290000Y-92822000D01*
X164465000Y-102235000D02*
X156210000Y-102235000D01*
X189680000Y-107130000D02*
X169360000Y-107130000D01*
X169360000Y-107130000D02*
X165735000Y-103505000D01*
X155430000Y-93962000D02*
X154305000Y-92837000D01*
X154290000Y-92822000D02*
X154305000Y-92837000D01*
X193294000Y-110744000D02*
X189680000Y-107130000D01*
X165735000Y-103505000D02*
X164465000Y-102235000D01*
X158420000Y-91262000D02*
X170003396Y-91262000D01*
X174223396Y-95482000D02*
X187200000Y-95482000D01*
X187200000Y-95482000D02*
X189225000Y-97507000D01*
X156845000Y-92837000D02*
X158420000Y-91262000D01*
X170003396Y-91262000D02*
X174223396Y-95482000D01*
X161925000Y-92837000D02*
X163050000Y-91712000D01*
X163050000Y-91712000D02*
X169817000Y-91712000D01*
X174037000Y-95932000D02*
X185110000Y-95932000D01*
X169817000Y-91712000D02*
X174037000Y-95932000D01*
X185110000Y-95932000D02*
X186685000Y-97507000D01*
X166000000Y-96382000D02*
X161925000Y-100457000D01*
X183020000Y-96382000D02*
X166000000Y-96382000D01*
X184145000Y-97507000D02*
X183020000Y-96382000D01*
X177430000Y-101682000D02*
X181605000Y-97507000D01*
X177430000Y-101682000D02*
X158070000Y-101682000D01*
X158070000Y-101682000D02*
X156845000Y-100457000D01*
X236580000Y-114300000D02*
X240030000Y-114300000D01*
X236580000Y-97790000D02*
X240030000Y-97790000D01*
X236580000Y-106045000D02*
X240030000Y-106045000D01*
X220345000Y-130048000D02*
X225428680Y-130048000D01*
X225428680Y-124968000D02*
X220345000Y-124968000D01*
X225428680Y-122428000D02*
X220345000Y-122428000D01*
X210960000Y-106281000D02*
X190379000Y-106281000D01*
X190379000Y-106281000D02*
X189225000Y-105127000D01*
X212085000Y-105156000D02*
X210960000Y-106281000D01*
X220345000Y-119888000D02*
X225428680Y-119888000D01*
X220345000Y-117348000D02*
X225428680Y-117348000D01*
X220345000Y-114808000D02*
X225428680Y-114808000D01*
X216789000Y-115824000D02*
X216852500Y-115760500D01*
X220345000Y-112268000D02*
X216852500Y-115760500D01*
X225428680Y-112268000D02*
X228513000Y-112268000D01*
X228513000Y-112268000D02*
X229275000Y-113030000D01*
X220345000Y-112268000D02*
X225428680Y-112268000D01*
X213868000Y-115824000D02*
X216789000Y-115824000D01*
X225428680Y-109728000D02*
X229128000Y-109728000D01*
X216789000Y-113284000D02*
X220345000Y-109728000D01*
X220345000Y-109728000D02*
X225428680Y-109728000D01*
X229128000Y-109728000D02*
X229255000Y-109855000D01*
X213868000Y-113284000D02*
X216789000Y-113284000D01*
X228707000Y-107188000D02*
X229215000Y-106680000D01*
X225428680Y-107188000D02*
X228707000Y-107188000D01*
X216789000Y-110744000D02*
X220345000Y-107188000D01*
X220345000Y-107188000D02*
X225428680Y-107188000D01*
X213868000Y-110744000D02*
X216789000Y-110744000D01*
X250828680Y-127508000D02*
X255905000Y-127508000D01*
X220345000Y-102108000D02*
X225428680Y-102108000D01*
X213500000Y-93980000D02*
X213500000Y-99695000D01*
X220345000Y-99568000D02*
X225428680Y-99568000D01*
X213500000Y-89675000D02*
X213360000Y-89535000D01*
X213500000Y-92075000D02*
X213500000Y-89675000D01*
X228493000Y-99568000D02*
X229255000Y-100330000D01*
X213500000Y-90424000D02*
X213500000Y-89903000D01*
X225428680Y-99568000D02*
X228493000Y-99568000D01*
X213500000Y-93980000D02*
X213500000Y-92075000D01*
X213500000Y-92075000D02*
X213500000Y-90424000D01*
X213360000Y-89535000D02*
X215519000Y-89535000D01*
X206375000Y-89535000D02*
X213360000Y-89535000D01*
X213500000Y-99695000D02*
X213500000Y-101201000D01*
X201925000Y-105156000D02*
X209545000Y-105156000D01*
X215519000Y-89535000D02*
X216408000Y-90424000D01*
X213627000Y-99568000D02*
X213500000Y-99695000D01*
X213500000Y-101201000D02*
X209545000Y-105156000D01*
X216535000Y-93980000D02*
X213500000Y-93980000D01*
X220345000Y-99568000D02*
X213627000Y-99568000D01*
X220345000Y-97028000D02*
X225428680Y-97028000D01*
X242065680Y-88265000D02*
X206195431Y-88265000D01*
X205105000Y-89355431D02*
X205105000Y-94356000D01*
X250828680Y-97028000D02*
X242065680Y-88265000D01*
X250828680Y-97028000D02*
X255905000Y-97028000D01*
X206195431Y-88265000D02*
X205105000Y-89355431D01*
X205105000Y-94356000D02*
X201925000Y-97536000D01*
X249302840Y-98042160D02*
X250828680Y-99568000D01*
X250828680Y-99568000D02*
X255905000Y-99568000D01*
X249302840Y-97210308D02*
X249302840Y-98042160D01*
X231997000Y-95663000D02*
X233680000Y-93980000D01*
X216498000Y-95663000D02*
X231997000Y-95663000D01*
X246072532Y-93980000D02*
X249302840Y-97210308D01*
X233680000Y-93980000D02*
X246072532Y-93980000D01*
X214625000Y-97536000D02*
X216498000Y-95663000D01*
X250828680Y-130048000D02*
X255905000Y-130048000D01*
X255905000Y-107188000D02*
X259207000Y-107188000D01*
X250828680Y-107188000D02*
X255905000Y-107188000D01*
X259207000Y-107188000D02*
X261620000Y-104775000D01*
X250828680Y-114808000D02*
X255905000Y-114808000D01*
X250828680Y-102108000D02*
X255905000Y-102108000D01*
X195580000Y-111947009D02*
X195580000Y-114987569D01*
X206774000Y-107079000D02*
X200448009Y-107079000D01*
X250701680Y-122555000D02*
X250828680Y-122428000D01*
X250828680Y-122428000D02*
X255905000Y-122428000D01*
X208915000Y-109220000D02*
X206774000Y-107079000D01*
X193718569Y-116849000D02*
X175269000Y-116849000D01*
X247650000Y-122555000D02*
X250701680Y-122555000D01*
X195580000Y-114987569D02*
X193718569Y-116849000D01*
X232378000Y-123793000D02*
X219043000Y-123793000D01*
X219043000Y-123793000D02*
X208915000Y-113665000D01*
X232410000Y-123825000D02*
X232378000Y-123793000D01*
X200448009Y-107079000D02*
X195580000Y-111947009D01*
X175269000Y-116849000D02*
X169545000Y-111125000D01*
X208915000Y-113665000D02*
X208915000Y-109220000D01*
X250828680Y-117348000D02*
X249053680Y-115573000D01*
X250828680Y-117348000D02*
X255905000Y-117348000D01*
X249053680Y-107448680D02*
X247650000Y-106045000D01*
X249053680Y-115573000D02*
X249053680Y-107448680D01*
X247650000Y-97790000D02*
X249503680Y-99643680D01*
X230505000Y-136493000D02*
X232595000Y-134403000D01*
X154940000Y-128846846D02*
X162586154Y-136493000D01*
X232595000Y-134403000D02*
X240247000Y-134403000D01*
X162586154Y-136493000D02*
X230505000Y-136493000D01*
X246380000Y-128270000D02*
X246380000Y-112395000D01*
X249503680Y-110943000D02*
X250828680Y-112268000D01*
X240247000Y-134403000D02*
X246380000Y-128270000D01*
X249503680Y-99643680D02*
X249503680Y-110943000D01*
X158115000Y-111125000D02*
X154940000Y-114300000D01*
X250828680Y-112268000D02*
X255905000Y-112268000D01*
X154940000Y-114300000D02*
X154940000Y-128846846D01*
X250828680Y-119888000D02*
X255905000Y-119888000D01*
X250828680Y-119888000D02*
X247650000Y-116709320D01*
X247650000Y-116709320D02*
X247650000Y-114300000D01*
X202941000Y-99060000D02*
X204465000Y-97536000D01*
X185132000Y-99060000D02*
X202941000Y-99060000D01*
X179065000Y-105127000D02*
X185132000Y-99060000D01*
X204846000Y-99695000D02*
X207005000Y-97536000D01*
X181605000Y-105127000D02*
X187037000Y-99695000D01*
X187037000Y-99695000D02*
X204846000Y-99695000D01*
X188942000Y-100330000D02*
X206751000Y-100330000D01*
X184145000Y-105127000D02*
X188942000Y-100330000D01*
X206751000Y-100330000D02*
X209545000Y-97536000D01*
X208656000Y-100965000D02*
X212085000Y-97536000D01*
X190847000Y-100965000D02*
X208656000Y-100965000D01*
X186685000Y-105127000D02*
X190847000Y-100965000D01*
D36*
X141398000Y-130175000D02*
X142519400Y-130175000D01*
X130810000Y-119587000D02*
X141398000Y-130175000D01*
D37*
X220345000Y-104648000D02*
X225428680Y-104648000D01*
X216789000Y-108204000D02*
X220345000Y-104648000D01*
X228132000Y-104648000D02*
X229275000Y-103505000D01*
X225428680Y-104648000D02*
X228132000Y-104648000D01*
X213868000Y-108204000D02*
X216789000Y-108204000D01*
X250828680Y-132588000D02*
X255905000Y-132588000D01*
X250828680Y-104648000D02*
X255905000Y-104648000D01*
X261620000Y-107315000D02*
X259080000Y-109855000D01*
X261620000Y-128905000D02*
X259080000Y-126365000D01*
X255905000Y-124968000D02*
X258953000Y-124968000D01*
X250828680Y-124968000D02*
X255905000Y-124968000D01*
X259080000Y-126365000D02*
X259080000Y-125095000D01*
X258953000Y-124968000D02*
X259080000Y-125095000D01*
X259080000Y-125095000D02*
X259080000Y-109855000D01*
M02*
