G04 #@! TF.GenerationSoftware,KiCad,Pcbnew,7.0.10*
G04 #@! TF.CreationDate,2024-02-18T19:41:56-05:00*
G04 #@! TF.ProjectId,linearlight,6c696e65-6172-46c6-9967-68742e6b6963,rev?*
G04 #@! TF.SameCoordinates,Original*
G04 #@! TF.FileFunction,Legend,Bot*
G04 #@! TF.FilePolarity,Positive*
%FSLAX46Y46*%
G04 Gerber Fmt 4.6, Leading zero omitted, Abs format (unit mm)*
G04 Created by KiCad (PCBNEW 7.0.10) date 2024-02-18 19:41:56*
%MOMM*%
%LPD*%
G01*
G04 APERTURE LIST*
%ADD10C,0.300000*%
%ADD11C,0.200000*%
%ADD12C,0.508000*%
%ADD13C,1.600000*%
%ADD14C,1.400000*%
%ADD15O,1.400000X1.400000*%
%ADD16R,2.400000X2.400000*%
%ADD17C,2.400000*%
%ADD18O,2.400000X2.400000*%
%ADD19R,1.700000X1.700000*%
%ADD20O,1.700000X1.700000*%
%ADD21R,1.600000X1.600000*%
%ADD22O,1.600000X1.600000*%
%ADD23R,1.500000X1.500000*%
%ADD24C,1.500000*%
%ADD25R,1.800000X1.800000*%
%ADD26C,1.800000*%
%ADD27R,2.500000X2.500000*%
%ADD28C,1.803400*%
%ADD29C,3.784600*%
%ADD30C,2.000000*%
%ADD31C,3.200000*%
%ADD32R,1.905000X2.000000*%
%ADD33O,1.905000X2.000000*%
%ADD34C,5.000000*%
%ADD35C,2.286000*%
%ADD36C,2.794000*%
%ADD37C,4.572000*%
%ADD38R,2.000000X1.200000*%
%ADD39O,2.000000X1.200000*%
G04 APERTURE END LIST*
D10*
X128747393Y-119370733D02*
X126842632Y-119370733D01*
X127795012Y-120589780D02*
X127795012Y-118151685D01*
X127437870Y-122694161D02*
X127675965Y-122541780D01*
X127675965Y-122541780D02*
X128033108Y-122541780D01*
X128033108Y-122541780D02*
X128390251Y-122694161D01*
X128390251Y-122694161D02*
X128628346Y-122998923D01*
X128628346Y-122998923D02*
X128747393Y-123303685D01*
X128747393Y-123303685D02*
X128866441Y-123913209D01*
X128866441Y-123913209D02*
X128866441Y-124370352D01*
X128866441Y-124370352D02*
X128747393Y-124979876D01*
X128747393Y-124979876D02*
X128628346Y-125284638D01*
X128628346Y-125284638D02*
X128390251Y-125589400D01*
X128390251Y-125589400D02*
X128033108Y-125741780D01*
X128033108Y-125741780D02*
X127795012Y-125741780D01*
X127795012Y-125741780D02*
X127437870Y-125589400D01*
X127437870Y-125589400D02*
X127318822Y-125437019D01*
X127318822Y-125437019D02*
X127318822Y-124370352D01*
X127318822Y-124370352D02*
X127795012Y-124370352D01*
X127318822Y-130893780D02*
X128152155Y-129369971D01*
X128747393Y-130893780D02*
X128747393Y-127693780D01*
X128747393Y-127693780D02*
X127795012Y-127693780D01*
X127795012Y-127693780D02*
X127556917Y-127846161D01*
X127556917Y-127846161D02*
X127437870Y-127998542D01*
X127437870Y-127998542D02*
X127318822Y-128303304D01*
X127318822Y-128303304D02*
X127318822Y-128760447D01*
X127318822Y-128760447D02*
X127437870Y-129065209D01*
X127437870Y-129065209D02*
X127556917Y-129217590D01*
X127556917Y-129217590D02*
X127795012Y-129369971D01*
X127795012Y-129369971D02*
X128747393Y-129369971D01*
X127914060Y-134369590D02*
X127556917Y-134521971D01*
X127556917Y-134521971D02*
X127437870Y-134674352D01*
X127437870Y-134674352D02*
X127318822Y-134979114D01*
X127318822Y-134979114D02*
X127318822Y-135436257D01*
X127318822Y-135436257D02*
X127437870Y-135741019D01*
X127437870Y-135741019D02*
X127556917Y-135893400D01*
X127556917Y-135893400D02*
X127795012Y-136045780D01*
X127795012Y-136045780D02*
X128747393Y-136045780D01*
X128747393Y-136045780D02*
X128747393Y-132845780D01*
X128747393Y-132845780D02*
X127914060Y-132845780D01*
X127914060Y-132845780D02*
X127675965Y-132998161D01*
X127675965Y-132998161D02*
X127556917Y-133150542D01*
X127556917Y-133150542D02*
X127437870Y-133455304D01*
X127437870Y-133455304D02*
X127437870Y-133760066D01*
X127437870Y-133760066D02*
X127556917Y-134064828D01*
X127556917Y-134064828D02*
X127675965Y-134217209D01*
X127675965Y-134217209D02*
X127914060Y-134369590D01*
X127914060Y-134369590D02*
X128747393Y-134369590D01*
X128985489Y-137997780D02*
X128390251Y-141197780D01*
X128390251Y-141197780D02*
X127914060Y-138912066D01*
X127914060Y-138912066D02*
X127437870Y-141197780D01*
X127437870Y-141197780D02*
X126842632Y-137997780D01*
D11*
G36*
X253621493Y-91827616D02*
G01*
X253743996Y-91831772D01*
X253865126Y-91838699D01*
X253984881Y-91848396D01*
X254103262Y-91860864D01*
X254220270Y-91876103D01*
X254393205Y-91904155D01*
X254563049Y-91938442D01*
X254729802Y-91978962D01*
X254893464Y-92025717D01*
X255054035Y-92078705D01*
X255211514Y-92137927D01*
X255314783Y-92180872D01*
X255466123Y-92249685D01*
X255613496Y-92323136D01*
X255756902Y-92401223D01*
X255896341Y-92483947D01*
X256031812Y-92571307D01*
X256163317Y-92663305D01*
X256290855Y-92759939D01*
X256414426Y-92861210D01*
X256534029Y-92967118D01*
X256649666Y-93077663D01*
X256724553Y-93153935D01*
X256832668Y-93271349D01*
X256936094Y-93392782D01*
X257034832Y-93518233D01*
X257128882Y-93647703D01*
X257218243Y-93781191D01*
X257302916Y-93918698D01*
X257382901Y-94060223D01*
X257458197Y-94205767D01*
X257528805Y-94355330D01*
X257594725Y-94508911D01*
X257636067Y-94613531D01*
X257693160Y-94773011D01*
X257744637Y-94934912D01*
X257790498Y-95099235D01*
X257830744Y-95265980D01*
X257865374Y-95435145D01*
X257894388Y-95606733D01*
X257917787Y-95780741D01*
X257930266Y-95898092D01*
X257940250Y-96016520D01*
X257947737Y-96136023D01*
X257952729Y-96256603D01*
X257955225Y-96378259D01*
X257955537Y-96439490D01*
X257954323Y-96565588D01*
X257950683Y-96690358D01*
X257944615Y-96813800D01*
X257936120Y-96935914D01*
X257925197Y-97056699D01*
X257911848Y-97176157D01*
X257896071Y-97294287D01*
X257877868Y-97411088D01*
X257857237Y-97526562D01*
X257821739Y-97697282D01*
X257780781Y-97865013D01*
X257734362Y-98029757D01*
X257682481Y-98191513D01*
X257644860Y-98297690D01*
X257583766Y-98453898D01*
X257518086Y-98605985D01*
X257447822Y-98753951D01*
X257372972Y-98897794D01*
X257293537Y-99037517D01*
X257209516Y-99173117D01*
X257120910Y-99304596D01*
X257027719Y-99431953D01*
X256929943Y-99555189D01*
X256827581Y-99674303D01*
X256756793Y-99751423D01*
X256646866Y-99862758D01*
X256532509Y-99969250D01*
X256413721Y-100070898D01*
X256290503Y-100167704D01*
X256162853Y-100259668D01*
X256030773Y-100346788D01*
X255894263Y-100429065D01*
X255753321Y-100506500D01*
X255607949Y-100579091D01*
X255458146Y-100646840D01*
X255355816Y-100689316D01*
X255199041Y-100747980D01*
X255038659Y-100800874D01*
X254874671Y-100847997D01*
X254707076Y-100889351D01*
X254535876Y-100924934D01*
X254419738Y-100945450D01*
X254301998Y-100963402D01*
X254182655Y-100978789D01*
X254061709Y-100991612D01*
X253939160Y-101001870D01*
X253815008Y-101009564D01*
X253689254Y-101014693D01*
X253561896Y-101017257D01*
X253497616Y-101017578D01*
X253313587Y-101014865D01*
X253132992Y-101006724D01*
X252955832Y-100993158D01*
X252782107Y-100974164D01*
X252611816Y-100949743D01*
X252444960Y-100919896D01*
X252281539Y-100884622D01*
X252121552Y-100843921D01*
X251965000Y-100797794D01*
X251811883Y-100746239D01*
X251662200Y-100689258D01*
X251515952Y-100626851D01*
X251373139Y-100559016D01*
X251233760Y-100485754D01*
X251097816Y-100407066D01*
X250965307Y-100322951D01*
X250836621Y-100232540D01*
X250712149Y-100134961D01*
X250591890Y-100030215D01*
X250475844Y-99918302D01*
X250364011Y-99799222D01*
X250256392Y-99672975D01*
X250152985Y-99539561D01*
X250053792Y-99398981D01*
X249958812Y-99251233D01*
X249868046Y-99096318D01*
X249781492Y-98934236D01*
X249699152Y-98764987D01*
X249621024Y-98588571D01*
X249547110Y-98404989D01*
X249477410Y-98214239D01*
X249411922Y-98016322D01*
X251522180Y-98016322D01*
X251569607Y-98141644D01*
X251636784Y-98264820D01*
X251704744Y-98361815D01*
X251785344Y-98457436D01*
X251878584Y-98551683D01*
X251984463Y-98644556D01*
X252102982Y-98736056D01*
X252166981Y-98781290D01*
X252266604Y-98845716D01*
X252369833Y-98903805D01*
X252476668Y-98955557D01*
X252587110Y-99000972D01*
X252701158Y-99040050D01*
X252818812Y-99072791D01*
X252940073Y-99099195D01*
X253064940Y-99119262D01*
X253193414Y-99132992D01*
X253325494Y-99140385D01*
X253415551Y-99141793D01*
X253540115Y-99139892D01*
X253661015Y-99134191D01*
X253778251Y-99124688D01*
X253947237Y-99103308D01*
X254107979Y-99073374D01*
X254260478Y-99034889D01*
X254404734Y-98987851D01*
X254540747Y-98932261D01*
X254668517Y-98868119D01*
X254788043Y-98795424D01*
X254899326Y-98714177D01*
X254968935Y-98655261D01*
X255065750Y-98558232D01*
X255153961Y-98450693D01*
X255233568Y-98332643D01*
X255304571Y-98204084D01*
X255366970Y-98065014D01*
X255420765Y-97915434D01*
X255465957Y-97755345D01*
X255502545Y-97584745D01*
X255522157Y-97465173D01*
X255537945Y-97340929D01*
X255549909Y-97212015D01*
X255558049Y-97078429D01*
X249262445Y-97078429D01*
X249255210Y-96950534D01*
X249250355Y-96823302D01*
X249247882Y-96696735D01*
X249247791Y-96570832D01*
X249250081Y-96445592D01*
X249254752Y-96321017D01*
X249261804Y-96197106D01*
X249271238Y-96073859D01*
X249283053Y-95951275D01*
X249297250Y-95829356D01*
X249313828Y-95708101D01*
X249332787Y-95587510D01*
X249334515Y-95577801D01*
X251657002Y-95577801D01*
X255558049Y-95577801D01*
X255544677Y-95446093D01*
X255525463Y-95323937D01*
X255499236Y-95195328D01*
X255471175Y-95079958D01*
X255449605Y-95000411D01*
X255409694Y-94879648D01*
X255360304Y-94761359D01*
X255301434Y-94645542D01*
X255233084Y-94532198D01*
X255155254Y-94421327D01*
X255127205Y-94384919D01*
X255036220Y-94279406D01*
X254952372Y-94196516D01*
X254861224Y-94118206D01*
X254762778Y-94044475D01*
X254657033Y-93975324D01*
X254543990Y-93910752D01*
X254520505Y-93898387D01*
X254396714Y-93841816D01*
X254263478Y-93794832D01*
X254150088Y-93764149D01*
X254030654Y-93739603D01*
X253905174Y-93721193D01*
X253773649Y-93708920D01*
X253636079Y-93702783D01*
X253565027Y-93702016D01*
X253404629Y-93706215D01*
X253252061Y-93718812D01*
X253107324Y-93739806D01*
X252970418Y-93769198D01*
X252841343Y-93806988D01*
X252720100Y-93853176D01*
X252606687Y-93907761D01*
X252501106Y-93970744D01*
X252403355Y-94042125D01*
X252313435Y-94121904D01*
X252257840Y-94179755D01*
X252179349Y-94273221D01*
X252105444Y-94374466D01*
X252036123Y-94483491D01*
X251971389Y-94600296D01*
X251911239Y-94724880D01*
X251855675Y-94857243D01*
X251804696Y-94997386D01*
X251758302Y-95145308D01*
X251716494Y-95301010D01*
X251679270Y-95464492D01*
X251657002Y-95577801D01*
X249334515Y-95577801D01*
X249354128Y-95467583D01*
X249377850Y-95348320D01*
X249403954Y-95229721D01*
X249432438Y-95111786D01*
X249462915Y-94994984D01*
X249495728Y-94879786D01*
X249530876Y-94766190D01*
X249568360Y-94654197D01*
X249608179Y-94543807D01*
X249672287Y-94381227D01*
X249741650Y-94222254D01*
X249816268Y-94066886D01*
X249896141Y-93915126D01*
X249981269Y-93766971D01*
X250071653Y-93622424D01*
X250167291Y-93481482D01*
X250200338Y-93435303D01*
X250302408Y-93299994D01*
X250409681Y-93169941D01*
X250522157Y-93045142D01*
X250639838Y-92925599D01*
X250762721Y-92811310D01*
X250890809Y-92702277D01*
X251024099Y-92598498D01*
X251162594Y-92499975D01*
X251306292Y-92406707D01*
X251455193Y-92318693D01*
X251557351Y-92262937D01*
X251714848Y-92184893D01*
X251822650Y-92137128D01*
X251932697Y-92092775D01*
X252044988Y-92051834D01*
X252159522Y-92014305D01*
X252276301Y-91980187D01*
X252395324Y-91949481D01*
X252516590Y-91922187D01*
X252640101Y-91898305D01*
X252765855Y-91877834D01*
X252893854Y-91860775D01*
X253024096Y-91847128D01*
X253156583Y-91836893D01*
X253291313Y-91830069D01*
X253428288Y-91826658D01*
X253497616Y-91826231D01*
X253621493Y-91827616D01*
G37*
G36*
X247829228Y-92051912D02*
G01*
X247829228Y-100830000D01*
X245431741Y-100830000D01*
X245431741Y-95727278D01*
X245430118Y-95608018D01*
X245422905Y-95455816D01*
X245409922Y-95311400D01*
X245391169Y-95174769D01*
X245366645Y-95045923D01*
X245336351Y-94924863D01*
X245300287Y-94811588D01*
X245247093Y-94680942D01*
X245186686Y-94560113D01*
X245122701Y-94448586D01*
X245055138Y-94346362D01*
X244969340Y-94235972D01*
X244878390Y-94138977D01*
X244798663Y-94068381D01*
X244700226Y-93992990D01*
X244600552Y-93927284D01*
X244482703Y-93862870D01*
X244363171Y-93811639D01*
X244259375Y-93778220D01*
X244142748Y-93748527D01*
X244022168Y-93723523D01*
X243902719Y-93706779D01*
X243810945Y-93702016D01*
X243671727Y-93705085D01*
X243541301Y-93714289D01*
X243419668Y-93729631D01*
X243279992Y-93757437D01*
X243154054Y-93794832D01*
X243041855Y-93841816D01*
X242943394Y-93898387D01*
X242838362Y-93976457D01*
X242745283Y-94063389D01*
X242664156Y-94159182D01*
X242594982Y-94263836D01*
X242537761Y-94377352D01*
X242521343Y-94417159D01*
X242477894Y-94540223D01*
X242442071Y-94667615D01*
X242413872Y-94799334D01*
X242393299Y-94935382D01*
X242380350Y-95075756D01*
X242377728Y-95123510D01*
X242372662Y-95242864D01*
X242368454Y-95362791D01*
X242365106Y-95483291D01*
X242362616Y-95604363D01*
X242360984Y-95726007D01*
X242360211Y-95848224D01*
X242360143Y-95897271D01*
X242360143Y-100830000D01*
X239962655Y-100830000D01*
X239962655Y-95929511D01*
X239961224Y-95802414D01*
X239956930Y-95675747D01*
X239949775Y-95549508D01*
X239939757Y-95423699D01*
X239926877Y-95298320D01*
X239911135Y-95173370D01*
X239904036Y-95123510D01*
X239882856Y-95000177D01*
X239855951Y-94881137D01*
X239823322Y-94766390D01*
X239776610Y-94634362D01*
X239721656Y-94508516D01*
X239669563Y-94408367D01*
X239597779Y-94294885D01*
X239516515Y-94189647D01*
X239425771Y-94092652D01*
X239325547Y-94003900D01*
X239215844Y-93923392D01*
X239177170Y-93898387D01*
X239074445Y-93841816D01*
X238962274Y-93794832D01*
X238840658Y-93757437D01*
X238709597Y-93729631D01*
X238569091Y-93711413D01*
X238449885Y-93703742D01*
X238356514Y-93702016D01*
X238233736Y-93704672D01*
X238089408Y-93715463D01*
X237955242Y-93734554D01*
X237831236Y-93761945D01*
X237717391Y-93797637D01*
X237594190Y-93851424D01*
X237556374Y-93872009D01*
X237450415Y-93939981D01*
X237354553Y-94016403D01*
X237268790Y-94101273D01*
X237193124Y-94194593D01*
X237127556Y-94296362D01*
X237107944Y-94332163D01*
X237055016Y-94443583D01*
X237010537Y-94562423D01*
X236974508Y-94688681D01*
X236946927Y-94822358D01*
X236930398Y-94939423D01*
X236923297Y-95012135D01*
X236913165Y-95135239D01*
X236904750Y-95260919D01*
X236898052Y-95389175D01*
X236893072Y-95520007D01*
X236889809Y-95653415D01*
X236888263Y-95789400D01*
X236888126Y-95844515D01*
X236888126Y-100830000D01*
X234493569Y-100830000D01*
X234493569Y-94962309D01*
X234495655Y-94805654D01*
X234501915Y-94653327D01*
X234512348Y-94505327D01*
X234526954Y-94361655D01*
X234545733Y-94222311D01*
X234568685Y-94087294D01*
X234595810Y-93956605D01*
X234627109Y-93830244D01*
X234662580Y-93708210D01*
X234702225Y-93590504D01*
X234730973Y-93514438D01*
X234776585Y-93403266D01*
X234825495Y-93296165D01*
X234895837Y-93159694D01*
X234972041Y-93030459D01*
X235054106Y-92908460D01*
X235142034Y-92793696D01*
X235235823Y-92686168D01*
X235335474Y-92585876D01*
X235387498Y-92538443D01*
X235495667Y-92448547D01*
X235609148Y-92364970D01*
X235727942Y-92287713D01*
X235852048Y-92216775D01*
X235981466Y-92152158D01*
X236116196Y-92093860D01*
X236256239Y-92041882D01*
X236401594Y-91996224D01*
X236550521Y-91956382D01*
X236702745Y-91921852D01*
X236819078Y-91899441D01*
X236937264Y-91880018D01*
X237057306Y-91863583D01*
X237179202Y-91850136D01*
X237302953Y-91839678D01*
X237428559Y-91832207D01*
X237556019Y-91827725D01*
X237685334Y-91826231D01*
X237854105Y-91830069D01*
X238018600Y-91841584D01*
X238178819Y-91860775D01*
X238334761Y-91887643D01*
X238486427Y-91922187D01*
X238633817Y-91964408D01*
X238776931Y-92014305D01*
X238915769Y-92071878D01*
X239050330Y-92137128D01*
X239180616Y-92210055D01*
X239265097Y-92262937D01*
X239387397Y-92345455D01*
X239504802Y-92430343D01*
X239617314Y-92517601D01*
X239724930Y-92607228D01*
X239827652Y-92699226D01*
X239925480Y-92793593D01*
X240018414Y-92890330D01*
X240106453Y-92989438D01*
X240189597Y-93090915D01*
X240267848Y-93194762D01*
X240317295Y-93265310D01*
X240386676Y-93119010D01*
X240461826Y-92981263D01*
X240542747Y-92852068D01*
X240629438Y-92731426D01*
X240721899Y-92619335D01*
X240820130Y-92515797D01*
X240924132Y-92420812D01*
X241033904Y-92334378D01*
X241149446Y-92256497D01*
X241270758Y-92187169D01*
X241354839Y-92145701D01*
X241484171Y-92088608D01*
X241616080Y-92037131D01*
X241750564Y-91991270D01*
X241887624Y-91951024D01*
X242027261Y-91916394D01*
X242169473Y-91887380D01*
X242314261Y-91863981D01*
X242461625Y-91846198D01*
X242611566Y-91834031D01*
X242764082Y-91827479D01*
X242867191Y-91826231D01*
X243026533Y-91829477D01*
X243182527Y-91839214D01*
X243335172Y-91855443D01*
X243484469Y-91878163D01*
X243630416Y-91907375D01*
X243773015Y-91943078D01*
X243912265Y-91985273D01*
X244048166Y-92033960D01*
X244180718Y-92089138D01*
X244309922Y-92150807D01*
X244394197Y-92195526D01*
X244517244Y-92266899D01*
X244636890Y-92343629D01*
X244753137Y-92425718D01*
X244865983Y-92513164D01*
X244975428Y-92605969D01*
X245081473Y-92704132D01*
X245184118Y-92807652D01*
X245283363Y-92916531D01*
X245379207Y-93030768D01*
X245471651Y-93150363D01*
X245531392Y-93233070D01*
X245566563Y-93233070D01*
X245566563Y-92051912D01*
X247829228Y-92051912D01*
G37*
G36*
X230214434Y-90700760D02*
G01*
X230214434Y-88637397D01*
X232611922Y-88637397D01*
X232611922Y-90700760D01*
X230214434Y-90700760D01*
G37*
G36*
X232611922Y-92101737D02*
G01*
X232611922Y-100830000D01*
X230214434Y-100830000D01*
X230214434Y-92101737D01*
X232611922Y-92101737D01*
G37*
G36*
X228285893Y-88824975D02*
G01*
X228285893Y-100830000D01*
X225888405Y-100830000D01*
X225888405Y-88824975D01*
X228285893Y-88824975D01*
G37*
G36*
X221562376Y-90700760D02*
G01*
X221562376Y-88637397D01*
X223959863Y-88637397D01*
X223959863Y-90700760D01*
X221562376Y-90700760D01*
G37*
G36*
X223959863Y-92101737D02*
G01*
X223959863Y-100830000D01*
X221562376Y-100830000D01*
X221562376Y-92101737D01*
X223959863Y-92101737D01*
G37*
G36*
X216661887Y-92013810D02*
G01*
X216661887Y-89575289D01*
X219059375Y-89575289D01*
X219059375Y-92013810D01*
X220510177Y-92013810D01*
X220510177Y-93702016D01*
X219059375Y-93702016D01*
X219059375Y-98793014D01*
X219057443Y-98912824D01*
X219048856Y-99065758D01*
X219033400Y-99210907D01*
X219011075Y-99348271D01*
X218981880Y-99477849D01*
X218945816Y-99599642D01*
X218902883Y-99713650D01*
X218853080Y-99819873D01*
X218839556Y-99845212D01*
X218766999Y-99966184D01*
X218686714Y-100078140D01*
X218598700Y-100181080D01*
X218502959Y-100275003D01*
X218399490Y-100359911D01*
X218288293Y-100435803D01*
X218241650Y-100463635D01*
X218119719Y-100527978D01*
X217992064Y-100585451D01*
X217858685Y-100636055D01*
X217719581Y-100679790D01*
X217604176Y-100709832D01*
X217485108Y-100735478D01*
X217362376Y-100756727D01*
X217236896Y-100773900D01*
X217109584Y-100788784D01*
X216980441Y-100801377D01*
X216849466Y-100811681D01*
X216716659Y-100819696D01*
X216582020Y-100825420D01*
X216445549Y-100828855D01*
X216307247Y-100830000D01*
X216173741Y-100830000D01*
X216039205Y-100830000D01*
X215903639Y-100830000D01*
X215767042Y-100830000D01*
X215629415Y-100830000D01*
X215583311Y-100830000D01*
X215446096Y-100830000D01*
X215313621Y-100830000D01*
X215185886Y-100830000D01*
X215062890Y-100830000D01*
X214944635Y-100830000D01*
X214906270Y-100830000D01*
X214906270Y-98886803D01*
X215024871Y-98908905D01*
X215146937Y-98926852D01*
X215260910Y-98939560D01*
X215378318Y-98947288D01*
X215499734Y-98952154D01*
X215625156Y-98954157D01*
X215650722Y-98954214D01*
X215796077Y-98951100D01*
X215928792Y-98941758D01*
X216048868Y-98926188D01*
X216181189Y-98897966D01*
X216293760Y-98860013D01*
X216402776Y-98801624D01*
X216459654Y-98754912D01*
X216538454Y-98648644D01*
X216590592Y-98527194D01*
X216623178Y-98404576D01*
X216645890Y-98262496D01*
X216656950Y-98134818D01*
X216661690Y-97994684D01*
X216661887Y-97957704D01*
X216661887Y-93702016D01*
X214906270Y-93702016D01*
X214906270Y-92013810D01*
X216661887Y-92013810D01*
G37*
G36*
X209880530Y-91827616D02*
G01*
X210003033Y-91831772D01*
X210124163Y-91838699D01*
X210243918Y-91848396D01*
X210362299Y-91860864D01*
X210479307Y-91876103D01*
X210652242Y-91904155D01*
X210822086Y-91938442D01*
X210988839Y-91978962D01*
X211152501Y-92025717D01*
X211313072Y-92078705D01*
X211470551Y-92137927D01*
X211573820Y-92180872D01*
X211725160Y-92249685D01*
X211872533Y-92323136D01*
X212015939Y-92401223D01*
X212155378Y-92483947D01*
X212290849Y-92571307D01*
X212422354Y-92663305D01*
X212549892Y-92759939D01*
X212673463Y-92861210D01*
X212793066Y-92967118D01*
X212908703Y-93077663D01*
X212983590Y-93153935D01*
X213091705Y-93271349D01*
X213195131Y-93392782D01*
X213293869Y-93518233D01*
X213387919Y-93647703D01*
X213477280Y-93781191D01*
X213561953Y-93918698D01*
X213641938Y-94060223D01*
X213717234Y-94205767D01*
X213787842Y-94355330D01*
X213853762Y-94508911D01*
X213895104Y-94613531D01*
X213952197Y-94773011D01*
X214003674Y-94934912D01*
X214049535Y-95099235D01*
X214089781Y-95265980D01*
X214124411Y-95435145D01*
X214153425Y-95606733D01*
X214176824Y-95780741D01*
X214189303Y-95898092D01*
X214199287Y-96016520D01*
X214206774Y-96136023D01*
X214211766Y-96256603D01*
X214214262Y-96378259D01*
X214214574Y-96439490D01*
X214213360Y-96565588D01*
X214209719Y-96690358D01*
X214203652Y-96813800D01*
X214195157Y-96935914D01*
X214184234Y-97056699D01*
X214170885Y-97176157D01*
X214155108Y-97294287D01*
X214136905Y-97411088D01*
X214116274Y-97526562D01*
X214080776Y-97697282D01*
X214039818Y-97865013D01*
X213993399Y-98029757D01*
X213941518Y-98191513D01*
X213903897Y-98297690D01*
X213842803Y-98453898D01*
X213777123Y-98605985D01*
X213706859Y-98753951D01*
X213632009Y-98897794D01*
X213552574Y-99037517D01*
X213468553Y-99173117D01*
X213379947Y-99304596D01*
X213286756Y-99431953D01*
X213188980Y-99555189D01*
X213086618Y-99674303D01*
X213015830Y-99751423D01*
X212905903Y-99862758D01*
X212791546Y-99969250D01*
X212672758Y-100070898D01*
X212549540Y-100167704D01*
X212421890Y-100259668D01*
X212289810Y-100346788D01*
X212153300Y-100429065D01*
X212012358Y-100506500D01*
X211866986Y-100579091D01*
X211717183Y-100646840D01*
X211614853Y-100689316D01*
X211458078Y-100747980D01*
X211297696Y-100800874D01*
X211133708Y-100847997D01*
X210966113Y-100889351D01*
X210794913Y-100924934D01*
X210678775Y-100945450D01*
X210561035Y-100963402D01*
X210441692Y-100978789D01*
X210320746Y-100991612D01*
X210198197Y-101001870D01*
X210074045Y-101009564D01*
X209948291Y-101014693D01*
X209820933Y-101017257D01*
X209756653Y-101017578D01*
X209572624Y-101014865D01*
X209392029Y-101006724D01*
X209214869Y-100993158D01*
X209041144Y-100974164D01*
X208870853Y-100949743D01*
X208703997Y-100919896D01*
X208540576Y-100884622D01*
X208380589Y-100843921D01*
X208224037Y-100797794D01*
X208070920Y-100746239D01*
X207921237Y-100689258D01*
X207774989Y-100626851D01*
X207632176Y-100559016D01*
X207492797Y-100485754D01*
X207356853Y-100407066D01*
X207224344Y-100322951D01*
X207095658Y-100232540D01*
X206971186Y-100134961D01*
X206850927Y-100030215D01*
X206734881Y-99918302D01*
X206623048Y-99799222D01*
X206515429Y-99672975D01*
X206412022Y-99539561D01*
X206312829Y-99398981D01*
X206217849Y-99251233D01*
X206127083Y-99096318D01*
X206040529Y-98934236D01*
X205958189Y-98764987D01*
X205880061Y-98588571D01*
X205806147Y-98404989D01*
X205736447Y-98214239D01*
X205670959Y-98016322D01*
X207781217Y-98016322D01*
X207828644Y-98141644D01*
X207895821Y-98264820D01*
X207963781Y-98361815D01*
X208044381Y-98457436D01*
X208137621Y-98551683D01*
X208243500Y-98644556D01*
X208362019Y-98736056D01*
X208426018Y-98781290D01*
X208525641Y-98845716D01*
X208628870Y-98903805D01*
X208735705Y-98955557D01*
X208846147Y-99000972D01*
X208960195Y-99040050D01*
X209077849Y-99072791D01*
X209199110Y-99099195D01*
X209323977Y-99119262D01*
X209452451Y-99132992D01*
X209584531Y-99140385D01*
X209674588Y-99141793D01*
X209799152Y-99139892D01*
X209920052Y-99134191D01*
X210037288Y-99124688D01*
X210206274Y-99103308D01*
X210367016Y-99073374D01*
X210519515Y-99034889D01*
X210663771Y-98987851D01*
X210799784Y-98932261D01*
X210927554Y-98868119D01*
X211047080Y-98795424D01*
X211158363Y-98714177D01*
X211227972Y-98655261D01*
X211324787Y-98558232D01*
X211412998Y-98450693D01*
X211492605Y-98332643D01*
X211563608Y-98204084D01*
X211626007Y-98065014D01*
X211679802Y-97915434D01*
X211724994Y-97755345D01*
X211761582Y-97584745D01*
X211781194Y-97465173D01*
X211796982Y-97340929D01*
X211808946Y-97212015D01*
X211817086Y-97078429D01*
X205521482Y-97078429D01*
X205514247Y-96950534D01*
X205509392Y-96823302D01*
X205506919Y-96696735D01*
X205506828Y-96570832D01*
X205509118Y-96445592D01*
X205513789Y-96321017D01*
X205520841Y-96197106D01*
X205530275Y-96073859D01*
X205542090Y-95951275D01*
X205556287Y-95829356D01*
X205572865Y-95708101D01*
X205591824Y-95587510D01*
X205593552Y-95577801D01*
X207916039Y-95577801D01*
X211817086Y-95577801D01*
X211803714Y-95446093D01*
X211784500Y-95323937D01*
X211758273Y-95195328D01*
X211730212Y-95079958D01*
X211708642Y-95000411D01*
X211668731Y-94879648D01*
X211619341Y-94761359D01*
X211560471Y-94645542D01*
X211492121Y-94532198D01*
X211414291Y-94421327D01*
X211386242Y-94384919D01*
X211295257Y-94279406D01*
X211211409Y-94196516D01*
X211120261Y-94118206D01*
X211021815Y-94044475D01*
X210916070Y-93975324D01*
X210803027Y-93910752D01*
X210779542Y-93898387D01*
X210655751Y-93841816D01*
X210522515Y-93794832D01*
X210409125Y-93764149D01*
X210289690Y-93739603D01*
X210164211Y-93721193D01*
X210032686Y-93708920D01*
X209895116Y-93702783D01*
X209824064Y-93702016D01*
X209663666Y-93706215D01*
X209511098Y-93718812D01*
X209366361Y-93739806D01*
X209229455Y-93769198D01*
X209100380Y-93806988D01*
X208979137Y-93853176D01*
X208865724Y-93907761D01*
X208760143Y-93970744D01*
X208662392Y-94042125D01*
X208572472Y-94121904D01*
X208516877Y-94179755D01*
X208438386Y-94273221D01*
X208364481Y-94374466D01*
X208295160Y-94483491D01*
X208230426Y-94600296D01*
X208170276Y-94724880D01*
X208114712Y-94857243D01*
X208063733Y-94997386D01*
X208017339Y-95145308D01*
X207975531Y-95301010D01*
X207938307Y-95464492D01*
X207916039Y-95577801D01*
X205593552Y-95577801D01*
X205613165Y-95467583D01*
X205636887Y-95348320D01*
X205662991Y-95229721D01*
X205691475Y-95111786D01*
X205721952Y-94994984D01*
X205754765Y-94879786D01*
X205789913Y-94766190D01*
X205827397Y-94654197D01*
X205867216Y-94543807D01*
X205931324Y-94381227D01*
X206000687Y-94222254D01*
X206075305Y-94066886D01*
X206155178Y-93915126D01*
X206240306Y-93766971D01*
X206330689Y-93622424D01*
X206426328Y-93481482D01*
X206459375Y-93435303D01*
X206561445Y-93299994D01*
X206668718Y-93169941D01*
X206781194Y-93045142D01*
X206898875Y-92925599D01*
X207021758Y-92811310D01*
X207149846Y-92702277D01*
X207283136Y-92598498D01*
X207421631Y-92499975D01*
X207565328Y-92406707D01*
X207714230Y-92318693D01*
X207816388Y-92262937D01*
X207973885Y-92184893D01*
X208081687Y-92137128D01*
X208191734Y-92092775D01*
X208304025Y-92051834D01*
X208418559Y-92014305D01*
X208535338Y-91980187D01*
X208654361Y-91949481D01*
X208775627Y-91922187D01*
X208899138Y-91898305D01*
X209024892Y-91877834D01*
X209152891Y-91860775D01*
X209283133Y-91847128D01*
X209415620Y-91836893D01*
X209550350Y-91830069D01*
X209687325Y-91826658D01*
X209756653Y-91826231D01*
X209880530Y-91827616D01*
G37*
G36*
X193783171Y-100830000D02*
G01*
X193783171Y-89012554D01*
X195691196Y-89012554D01*
X195712337Y-89132149D01*
X195737289Y-89248034D01*
X195776490Y-89396778D01*
X195822469Y-89538927D01*
X195875226Y-89674482D01*
X195934760Y-89803442D01*
X196001072Y-89925808D01*
X196074161Y-90041579D01*
X196113248Y-90096992D01*
X196195405Y-90203558D01*
X196282142Y-90304904D01*
X196373458Y-90401028D01*
X196469354Y-90491933D01*
X196569829Y-90577616D01*
X196674884Y-90658079D01*
X196784519Y-90733321D01*
X196898733Y-90803342D01*
X197016382Y-90867502D01*
X197137786Y-90926624D01*
X197262945Y-90980708D01*
X197391859Y-91029755D01*
X197524529Y-91073765D01*
X197660954Y-91112737D01*
X197801134Y-91146671D01*
X197945069Y-91175568D01*
X198091523Y-91199382D01*
X198239260Y-91219532D01*
X198388278Y-91236018D01*
X198538579Y-91248841D01*
X198690163Y-91258000D01*
X198843028Y-91263496D01*
X198997176Y-91265327D01*
X199152606Y-91263496D01*
X199152606Y-93139281D01*
X196180659Y-93139281D01*
X196180659Y-100830000D01*
X193783171Y-100830000D01*
G37*
G36*
X190055048Y-98203900D02*
G01*
X190055048Y-100830000D01*
X187405502Y-100830000D01*
X187405502Y-98203900D01*
X190055048Y-98203900D01*
G37*
G36*
X181889430Y-88640101D02*
G01*
X182051821Y-88648216D01*
X182212563Y-88661740D01*
X182371657Y-88680673D01*
X182529102Y-88705017D01*
X182684898Y-88734769D01*
X182839046Y-88769932D01*
X182991545Y-88810504D01*
X183142396Y-88856485D01*
X183291598Y-88907876D01*
X183390150Y-88945143D01*
X183535728Y-89005902D01*
X183677906Y-89073874D01*
X183816683Y-89149059D01*
X183952061Y-89231456D01*
X184084038Y-89321067D01*
X184212614Y-89417890D01*
X184337791Y-89521926D01*
X184459567Y-89633175D01*
X184577943Y-89751636D01*
X184692918Y-89877311D01*
X184767679Y-89965101D01*
X184876000Y-90103312D01*
X184945838Y-90200032D01*
X185013776Y-90300416D01*
X185079813Y-90404463D01*
X185143950Y-90512174D01*
X185206186Y-90623549D01*
X185266521Y-90738587D01*
X185324956Y-90857289D01*
X185381491Y-90979655D01*
X185436125Y-91105684D01*
X185488859Y-91235377D01*
X185539692Y-91368734D01*
X185588624Y-91505754D01*
X185635656Y-91646438D01*
X185680788Y-91790785D01*
X185702641Y-91864333D01*
X185744521Y-92014497D01*
X185783699Y-92168965D01*
X185820175Y-92327738D01*
X185853949Y-92490816D01*
X185885022Y-92658199D01*
X185913392Y-92829886D01*
X185939060Y-93005878D01*
X185962027Y-93186175D01*
X185982291Y-93370777D01*
X185999854Y-93559684D01*
X186014714Y-93752895D01*
X186026873Y-93950411D01*
X186036330Y-94152232D01*
X186043085Y-94358358D01*
X186047138Y-94568788D01*
X186048489Y-94783524D01*
X186047138Y-95005071D01*
X186043085Y-95222016D01*
X186036330Y-95434358D01*
X186026873Y-95642098D01*
X186014714Y-95845236D01*
X185999854Y-96043771D01*
X185982291Y-96237704D01*
X185962027Y-96427034D01*
X185939060Y-96611761D01*
X185913392Y-96791887D01*
X185885022Y-96967410D01*
X185853949Y-97138330D01*
X185820175Y-97304648D01*
X185783699Y-97466363D01*
X185744521Y-97623476D01*
X185702641Y-97775987D01*
X185658460Y-97923941D01*
X185612378Y-98068117D01*
X185564396Y-98208514D01*
X185514513Y-98345134D01*
X185462729Y-98477975D01*
X185409046Y-98607038D01*
X185353461Y-98732324D01*
X185295976Y-98853831D01*
X185236591Y-98971559D01*
X185175305Y-99085510D01*
X185112119Y-99195683D01*
X185047032Y-99302077D01*
X184980045Y-99404694D01*
X184911157Y-99503532D01*
X184840368Y-99598592D01*
X184767679Y-99689874D01*
X184654971Y-99820383D01*
X184538862Y-99943730D01*
X184419353Y-100059916D01*
X184296443Y-100168941D01*
X184170133Y-100270805D01*
X184040423Y-100365507D01*
X183907313Y-100453048D01*
X183770802Y-100533428D01*
X183630891Y-100606646D01*
X183487580Y-100672703D01*
X183390150Y-100712763D01*
X183242047Y-100767237D01*
X183092295Y-100816352D01*
X182940895Y-100860110D01*
X182787847Y-100898510D01*
X182633149Y-100931551D01*
X182476803Y-100959234D01*
X182318809Y-100981560D01*
X182159166Y-100998527D01*
X181997874Y-101010136D01*
X181834933Y-101016387D01*
X181725390Y-101017578D01*
X181558732Y-101014899D01*
X181393979Y-101006862D01*
X181231133Y-100993467D01*
X181070194Y-100974713D01*
X180911160Y-100950602D01*
X180754033Y-100921133D01*
X180598812Y-100886305D01*
X180445497Y-100846120D01*
X180294088Y-100800576D01*
X180144586Y-100749674D01*
X180045976Y-100712763D01*
X179900347Y-100651480D01*
X179758014Y-100583036D01*
X179618979Y-100507430D01*
X179483241Y-100424663D01*
X179350800Y-100334735D01*
X179221657Y-100237646D01*
X179095811Y-100133395D01*
X178973262Y-100021983D01*
X178854010Y-99903410D01*
X178738056Y-99777675D01*
X178662585Y-99689874D01*
X178588476Y-99598592D01*
X178516360Y-99503532D01*
X178446235Y-99404694D01*
X178378103Y-99302077D01*
X178311963Y-99195683D01*
X178247815Y-99085510D01*
X178185659Y-98971559D01*
X178125495Y-98853831D01*
X178067323Y-98732324D01*
X178011144Y-98607038D01*
X177956956Y-98477975D01*
X177904760Y-98345134D01*
X177854557Y-98208514D01*
X177806346Y-98068117D01*
X177760127Y-97923941D01*
X177715900Y-97775987D01*
X177674020Y-97623476D01*
X177634842Y-97466363D01*
X177598365Y-97304648D01*
X177564591Y-97138330D01*
X177533519Y-96967410D01*
X177505149Y-96791887D01*
X177479480Y-96611761D01*
X177456514Y-96427034D01*
X177436249Y-96237704D01*
X177418687Y-96043771D01*
X177403826Y-95845236D01*
X177391667Y-95642098D01*
X177382211Y-95434358D01*
X177375456Y-95222016D01*
X177371403Y-95005071D01*
X177370588Y-94871451D01*
X179767540Y-94871451D01*
X179768089Y-95002335D01*
X179769738Y-95139996D01*
X179772486Y-95284435D01*
X179776332Y-95435652D01*
X179779939Y-95553513D01*
X179784163Y-95675186D01*
X179789006Y-95800671D01*
X179794467Y-95929969D01*
X179800547Y-96063079D01*
X179802711Y-96108297D01*
X179810044Y-96244146D01*
X179819953Y-96379120D01*
X179832438Y-96513218D01*
X179847499Y-96646440D01*
X179865136Y-96778786D01*
X179885349Y-96910257D01*
X179908138Y-97040851D01*
X179933503Y-97170570D01*
X179961444Y-97299413D01*
X179991961Y-97427380D01*
X180013736Y-97512205D01*
X180048667Y-97636874D01*
X180087513Y-97758092D01*
X180130275Y-97875858D01*
X180176952Y-97990173D01*
X180227544Y-98101035D01*
X180282052Y-98208446D01*
X180340476Y-98312404D01*
X180402815Y-98412911D01*
X180469070Y-98509966D01*
X180563500Y-98634003D01*
X180588196Y-98664054D01*
X180692518Y-98776024D01*
X180807648Y-98873065D01*
X180933586Y-98955176D01*
X181070331Y-99022358D01*
X181217884Y-99074611D01*
X181335642Y-99104003D01*
X181459479Y-99124997D01*
X181589395Y-99137594D01*
X181725390Y-99141793D01*
X181858715Y-99137594D01*
X181986116Y-99124997D01*
X182107591Y-99104003D01*
X182223142Y-99074611D01*
X182367993Y-99022358D01*
X182502312Y-98955176D01*
X182626097Y-98873065D01*
X182739349Y-98776024D01*
X182842069Y-98664054D01*
X182935537Y-98541551D01*
X183022503Y-98412911D01*
X183083460Y-98312404D01*
X183140759Y-98208446D01*
X183194399Y-98101035D01*
X183244382Y-97990173D01*
X183290707Y-97875858D01*
X183333375Y-97758092D01*
X183372384Y-97636874D01*
X183407735Y-97512205D01*
X183439471Y-97384822D01*
X183468735Y-97256563D01*
X183495525Y-97127428D01*
X183519842Y-96997417D01*
X183541687Y-96866531D01*
X183561058Y-96734768D01*
X183577957Y-96602130D01*
X183592383Y-96468616D01*
X183604335Y-96334226D01*
X183613815Y-96198960D01*
X183618761Y-96108297D01*
X183624522Y-95973916D01*
X183629717Y-95843347D01*
X183634346Y-95716590D01*
X183638407Y-95593647D01*
X183641902Y-95474515D01*
X183645680Y-95321604D01*
X183648451Y-95175470D01*
X183650214Y-95036115D01*
X183650969Y-94903536D01*
X183651001Y-94871451D01*
X183650692Y-94751512D01*
X183649764Y-94622506D01*
X183648219Y-94484433D01*
X183646459Y-94362445D01*
X183644269Y-94234160D01*
X183642208Y-94126999D01*
X183638459Y-93989956D01*
X183632706Y-93851768D01*
X183624949Y-93712435D01*
X183615189Y-93571957D01*
X183603425Y-93430334D01*
X183589658Y-93287567D01*
X183583590Y-93230139D01*
X183566374Y-93085711D01*
X183545866Y-92941856D01*
X183522066Y-92798573D01*
X183494976Y-92655863D01*
X183464593Y-92513725D01*
X183430919Y-92372160D01*
X183416528Y-92315694D01*
X183376757Y-92176089D01*
X183332550Y-92041207D01*
X183283907Y-91911047D01*
X183230827Y-91785611D01*
X183173311Y-91664896D01*
X183111358Y-91548905D01*
X183085334Y-91503831D01*
X183016527Y-91395381D01*
X182941994Y-91293515D01*
X182861738Y-91198231D01*
X182775757Y-91109531D01*
X182684051Y-91027414D01*
X182586621Y-90951880D01*
X182546046Y-90923510D01*
X182438684Y-90859339D01*
X182323594Y-90806044D01*
X182200777Y-90763626D01*
X182070231Y-90732084D01*
X181931957Y-90711419D01*
X181785955Y-90701630D01*
X181725390Y-90700760D01*
X181605406Y-90704241D01*
X181462123Y-90718380D01*
X181326282Y-90743396D01*
X181197883Y-90779288D01*
X181076926Y-90826057D01*
X180963410Y-90883702D01*
X180898872Y-90923510D01*
X180796405Y-90996410D01*
X180699662Y-91075894D01*
X180608643Y-91161961D01*
X180523349Y-91254611D01*
X180443779Y-91353845D01*
X180369934Y-91459661D01*
X180341999Y-91503831D01*
X180276025Y-91617933D01*
X180215489Y-91736758D01*
X180160391Y-91860306D01*
X180110731Y-91988576D01*
X180066510Y-92121569D01*
X180027727Y-92259285D01*
X180013736Y-92315694D01*
X179980220Y-92457030D01*
X179949279Y-92598939D01*
X179920915Y-92741421D01*
X179895126Y-92884474D01*
X179871913Y-93028101D01*
X179851277Y-93172299D01*
X179843743Y-93230139D01*
X179826642Y-93373365D01*
X179811973Y-93515445D01*
X179799737Y-93656381D01*
X179789934Y-93796172D01*
X179782563Y-93934818D01*
X179777626Y-94072319D01*
X179776332Y-94126999D01*
X179773799Y-94260321D01*
X179771696Y-94387346D01*
X179770021Y-94508075D01*
X179768579Y-94644637D01*
X179767754Y-94772132D01*
X179767540Y-94871451D01*
X177370588Y-94871451D01*
X177370052Y-94783524D01*
X177371403Y-94568788D01*
X177375456Y-94358358D01*
X177382211Y-94152232D01*
X177391667Y-93950411D01*
X177403826Y-93752895D01*
X177418687Y-93559684D01*
X177436249Y-93370777D01*
X177456514Y-93186175D01*
X177479480Y-93005878D01*
X177505149Y-92829886D01*
X177533519Y-92658199D01*
X177564591Y-92490816D01*
X177598365Y-92327738D01*
X177634842Y-92168965D01*
X177674020Y-92014497D01*
X177715900Y-91864333D01*
X177760127Y-91718154D01*
X177806346Y-91575638D01*
X177854557Y-91436786D01*
X177904760Y-91301598D01*
X177956956Y-91170073D01*
X178011144Y-91042212D01*
X178067323Y-90918014D01*
X178125495Y-90797480D01*
X178185659Y-90680610D01*
X178247815Y-90567404D01*
X178311963Y-90457861D01*
X178378103Y-90351981D01*
X178446235Y-90249766D01*
X178516360Y-90151214D01*
X178588476Y-90056325D01*
X178662585Y-89965101D01*
X178776341Y-89834618D01*
X178893394Y-89711348D01*
X179013745Y-89595290D01*
X179137393Y-89486446D01*
X179264338Y-89384814D01*
X179394581Y-89290395D01*
X179528121Y-89203189D01*
X179664958Y-89123196D01*
X179805092Y-89050415D01*
X179948524Y-88984847D01*
X180045976Y-88945143D01*
X180194208Y-88890145D01*
X180344346Y-88840557D01*
X180496390Y-88796379D01*
X180650340Y-88757610D01*
X180806197Y-88724251D01*
X180963959Y-88696301D01*
X181123628Y-88673761D01*
X181285204Y-88656631D01*
X181448685Y-88644910D01*
X181614073Y-88638599D01*
X181725390Y-88637397D01*
X181889430Y-88640101D01*
G37*
D12*
X131191000Y-116277400D02*
G75*
G03*
X130429000Y-116277400I-381000J0D01*
G01*
X130429000Y-116277400D02*
G75*
G03*
X131191000Y-116277400I381000J0D01*
G01*
X140081000Y-87249000D02*
G75*
G03*
X139319000Y-87249000I-381000J0D01*
G01*
X139319000Y-87249000D02*
G75*
G03*
X140081000Y-87249000I381000J0D01*
G01*
%LPC*%
D13*
X189230000Y-90825000D03*
X189230000Y-93325000D03*
D14*
X213868000Y-115824000D03*
D15*
X206248000Y-115824000D03*
D16*
X147400000Y-112395000D03*
D17*
X152400000Y-112395000D03*
X158640000Y-120015000D03*
D18*
X163720000Y-120015000D03*
D19*
X261620000Y-123825000D03*
D20*
X261620000Y-126365000D03*
X261620000Y-128905000D03*
X261620000Y-131445000D03*
D21*
X151765000Y-100457000D03*
D22*
X154305000Y-100457000D03*
X156845000Y-100457000D03*
X159385000Y-100457000D03*
X161925000Y-100457000D03*
X164465000Y-100457000D03*
X167005000Y-100457000D03*
X167005000Y-92837000D03*
X164465000Y-92837000D03*
X161925000Y-92837000D03*
X159385000Y-92837000D03*
X156845000Y-92837000D03*
X154305000Y-92837000D03*
X151765000Y-92837000D03*
D14*
X247650000Y-122555000D03*
D15*
X240030000Y-122555000D03*
D14*
X193294000Y-113284000D03*
D15*
X200914000Y-113284000D03*
D19*
X255905000Y-94488000D03*
D20*
X255905000Y-97028000D03*
X255905000Y-99568000D03*
X255905000Y-102108000D03*
X255905000Y-104648000D03*
X255905000Y-107188000D03*
X255905000Y-109728000D03*
X255905000Y-112268000D03*
X255905000Y-114808000D03*
X255905000Y-117348000D03*
X255905000Y-119888000D03*
X255905000Y-122428000D03*
X255905000Y-124968000D03*
X255905000Y-127508000D03*
X255905000Y-130048000D03*
X255905000Y-132588000D03*
X255905000Y-135128000D03*
X255905000Y-137668000D03*
X255905000Y-140208000D03*
D14*
X213868000Y-108204000D03*
D15*
X206248000Y-108204000D03*
D13*
X216535000Y-93980000D03*
D22*
X206375000Y-93980000D03*
D23*
X236580000Y-116840000D03*
D24*
X236580000Y-114300000D03*
X236580000Y-111760000D03*
D13*
X170180000Y-100290000D03*
X170180000Y-97790000D03*
D25*
X142875000Y-103505000D03*
D26*
X145415000Y-103505000D03*
D27*
X143510000Y-97155000D03*
X175260000Y-89535000D03*
D19*
X220345000Y-140208000D03*
D20*
X220345000Y-137668000D03*
X220345000Y-135128000D03*
X220345000Y-132588000D03*
X220345000Y-130048000D03*
X220345000Y-127508000D03*
X220345000Y-124968000D03*
X220345000Y-122428000D03*
X220345000Y-119888000D03*
X220345000Y-117348000D03*
X220345000Y-114808000D03*
X220345000Y-112268000D03*
X220345000Y-109728000D03*
X220345000Y-107188000D03*
X220345000Y-104648000D03*
X220345000Y-102108000D03*
X220345000Y-99568000D03*
X220345000Y-97028000D03*
X220345000Y-94488000D03*
D13*
X231755000Y-109855000D03*
X229255000Y-109855000D03*
D14*
X186055000Y-113665000D03*
D15*
X186055000Y-121285000D03*
D14*
X167005000Y-113665000D03*
D15*
X167005000Y-121285000D03*
D28*
X130810000Y-119587000D03*
X130810000Y-124587000D03*
X130810000Y-129587000D03*
X130810000Y-134587001D03*
X130810000Y-139587001D03*
D13*
X200680000Y-93980000D03*
X203180000Y-93980000D03*
D19*
X261620000Y-117475000D03*
D20*
X261620000Y-114935000D03*
X261620000Y-112395000D03*
X261620000Y-109855000D03*
X261620000Y-107315000D03*
X261620000Y-104775000D03*
X261620000Y-102235000D03*
X261620000Y-99695000D03*
D14*
X170180000Y-113665000D03*
D15*
X170180000Y-121285000D03*
D13*
X151790000Y-89662000D03*
X154290000Y-89662000D03*
D29*
X140792200Y-133985000D03*
D30*
X142519400Y-130175000D03*
X139065000Y-137795000D03*
D31*
X262255000Y-138430000D03*
D14*
X213868000Y-113284000D03*
D15*
X206248000Y-113284000D03*
D13*
X173355000Y-100330000D03*
X173355000Y-102830000D03*
D32*
X168275000Y-139700000D03*
D33*
X170815000Y-139700000D03*
X173355000Y-139700000D03*
D13*
X166985000Y-89535000D03*
X164485000Y-89535000D03*
D14*
X198755000Y-89535000D03*
D15*
X206375000Y-89535000D03*
D14*
X247650000Y-114300000D03*
D15*
X240030000Y-114300000D03*
D21*
X161925000Y-103505000D03*
D22*
X161925000Y-111125000D03*
D23*
X236580000Y-125095000D03*
D24*
X236580000Y-122555000D03*
X236580000Y-120015000D03*
D14*
X233680000Y-128270000D03*
D15*
X233680000Y-135890000D03*
D34*
X186690000Y-132842000D03*
D14*
X247650000Y-106045000D03*
D15*
X240030000Y-106045000D03*
D13*
X138470000Y-116840000D03*
X140970000Y-116840000D03*
D21*
X176525000Y-105127000D03*
D22*
X179065000Y-105127000D03*
X181605000Y-105127000D03*
X184145000Y-105127000D03*
X186685000Y-105127000D03*
X189225000Y-105127000D03*
X191765000Y-105127000D03*
X191765000Y-97507000D03*
X189225000Y-97507000D03*
X186685000Y-97507000D03*
X184145000Y-97507000D03*
X181605000Y-97507000D03*
X179065000Y-97507000D03*
X176525000Y-97507000D03*
D17*
X206265000Y-120015000D03*
D18*
X211345000Y-120015000D03*
D14*
X135890000Y-114935000D03*
D15*
X128270000Y-114935000D03*
D21*
X199385000Y-105156000D03*
D22*
X201925000Y-105156000D03*
X204465000Y-105156000D03*
X207005000Y-105156000D03*
X209545000Y-105156000D03*
X212085000Y-105156000D03*
X214625000Y-105156000D03*
X214625000Y-97536000D03*
X212085000Y-97536000D03*
X209545000Y-97536000D03*
X207005000Y-97536000D03*
X204465000Y-97536000D03*
X201925000Y-97536000D03*
X199385000Y-97536000D03*
D32*
X184150000Y-139700000D03*
D33*
X186690000Y-139700000D03*
X189230000Y-139700000D03*
D32*
X143510000Y-120650000D03*
D33*
X140970000Y-120650000D03*
X138430000Y-120650000D03*
D21*
X165735000Y-103505000D03*
D22*
X165735000Y-111125000D03*
D27*
X179705000Y-89535000D03*
D21*
X213360000Y-138430000D03*
D13*
X215860000Y-138430000D03*
D34*
X202565000Y-132842000D03*
D21*
X158115000Y-103505000D03*
D22*
X158115000Y-111125000D03*
D14*
X247650000Y-97790000D03*
D15*
X240030000Y-97790000D03*
D32*
X200025000Y-139700000D03*
D33*
X202565000Y-139700000D03*
X205105000Y-139700000D03*
D31*
X146050000Y-91567000D03*
D14*
X240030000Y-128270000D03*
D15*
X240030000Y-135890000D03*
D13*
X148590000Y-97175000D03*
X148590000Y-99675000D03*
D23*
X236580000Y-108585000D03*
D24*
X236580000Y-106045000D03*
X236580000Y-103505000D03*
D14*
X182880000Y-113665000D03*
D15*
X182880000Y-121285000D03*
D14*
X213868000Y-110744000D03*
D15*
X206248000Y-110744000D03*
D14*
X193294000Y-110744000D03*
D15*
X200914000Y-110744000D03*
D27*
X184150000Y-89535000D03*
X216408000Y-90424000D03*
D14*
X176530000Y-92710000D03*
D15*
X184150000Y-92710000D03*
D13*
X231755000Y-100330000D03*
X229255000Y-100330000D03*
D17*
X174515000Y-120015000D03*
D18*
X179595000Y-120015000D03*
D17*
X190390000Y-120015000D03*
D18*
X195470000Y-120015000D03*
D34*
X170815000Y-132842000D03*
D13*
X231715000Y-106680000D03*
X229215000Y-106680000D03*
X231775000Y-113030000D03*
X229275000Y-113030000D03*
D34*
X154940000Y-132842000D03*
D35*
X139700000Y-93091000D03*
X139700000Y-98171000D03*
X139700000Y-103251000D03*
X139700000Y-108331000D03*
D36*
X137160000Y-90551000D03*
X137160000Y-110871000D03*
D37*
X129540000Y-95631000D03*
X129540000Y-105791000D03*
D14*
X243205000Y-128270000D03*
D15*
X243205000Y-135890000D03*
D31*
X262255000Y-91440000D03*
D14*
X193294000Y-115824000D03*
D15*
X200914000Y-115824000D03*
D13*
X231775000Y-103505000D03*
X229275000Y-103505000D03*
D32*
X152400000Y-139700000D03*
D33*
X154940000Y-139700000D03*
X157480000Y-139700000D03*
D23*
X236580000Y-100330000D03*
D24*
X236580000Y-97790000D03*
X236580000Y-95250000D03*
D13*
X151658000Y-103632000D03*
X154158000Y-103632000D03*
D38*
X225428680Y-94488000D03*
D39*
X225428680Y-97028000D03*
X225428680Y-99568000D03*
X225428680Y-102108000D03*
X225428680Y-104648000D03*
X225428680Y-107188000D03*
X225428680Y-109728000D03*
X225428680Y-112268000D03*
X225428680Y-114808000D03*
X225428680Y-117348000D03*
X225428680Y-119888000D03*
X225428680Y-122428000D03*
X225428680Y-124968000D03*
X225428680Y-127508000D03*
X225428680Y-130048000D03*
X225428680Y-132588000D03*
X225428680Y-135128000D03*
X225428680Y-137668000D03*
X225428680Y-140208000D03*
X250825000Y-140205280D03*
X250825000Y-137665280D03*
X250828680Y-135128000D03*
X250828680Y-132588000D03*
X250828680Y-130048000D03*
X250828680Y-127508000D03*
X250828680Y-124968000D03*
X250828680Y-122428000D03*
X250828680Y-119888000D03*
X250828680Y-117348000D03*
X250828680Y-114808000D03*
X250828680Y-112268000D03*
X250828680Y-109728000D03*
X250828680Y-107188000D03*
X250828680Y-104648000D03*
X250828680Y-102108000D03*
X250828680Y-99568000D03*
X250828680Y-97028000D03*
X250828680Y-94488000D03*
D14*
X236855000Y-128270000D03*
D15*
X236855000Y-135890000D03*
D21*
X169545000Y-103505000D03*
D22*
X169545000Y-111125000D03*
D23*
X192405000Y-93705000D03*
D24*
X194945000Y-93705000D03*
X197485000Y-93705000D03*
D14*
X193294000Y-108204000D03*
D15*
X200914000Y-108204000D03*
%LPD*%
M02*
